<svg width="138" height="80" viewBox="0 0 138 80" fill="none" xmlns="http://www.w3.org/2000/svg">
<path d="M32.9166 74.4842V73.9653H35.0649V74.4842L34.3953 74.5986V76.6538H37.2953V74.5986L36.6257 74.4842V73.9653H38.774V74.4842L38.1044 74.5986V79.285L38.774 79.3994V79.9142H36.6257V79.3994L37.2953 79.285V77.2871H34.3953V79.285L35.0649 79.3994V79.9142H32.9166V79.3994L33.5862 79.285V74.5986L32.9166 74.4842Z" fill="#999591"/>
<path d="M42.3557 79.9142C42.3311 79.7944 42.3119 79.6868 42.2982 79.5914C42.2845 79.4961 42.275 79.4008 42.2695 79.3054C42.1134 79.5043 41.9176 79.6704 41.6821 79.8039C41.4493 79.9346 41.2001 80 40.9345 80C40.4717 80 40.1199 79.8883 39.8789 79.665C39.6379 79.4389 39.5174 79.1216 39.5174 78.713C39.5174 78.2935 39.6872 77.9707 40.0268 77.7447C40.3691 77.5159 40.8373 77.4015 41.4315 77.4015H42.2654V76.8867C42.2654 76.6279 42.1832 76.4236 42.0189 76.2738C41.8546 76.1213 41.626 76.045 41.333 76.045C41.1303 76.045 40.951 76.0709 40.7949 76.1226C40.6415 76.1744 40.5169 76.2452 40.4211 76.3351L40.3348 76.8009H39.7105V75.9428C39.9131 75.7821 40.1582 75.6541 40.4457 75.5588C40.7333 75.4607 41.0454 75.4117 41.3822 75.4117C41.8861 75.4117 42.2941 75.5397 42.6063 75.7958C42.9185 76.0518 43.0746 76.4182 43.0746 76.8948V79.0235C43.0746 79.0807 43.0746 79.1365 43.0746 79.191C43.0773 79.2455 43.0814 79.3 43.0869 79.3545L43.4155 79.3994V79.9142H42.3557ZM41.0536 79.3259C41.322 79.3259 41.5671 79.2618 41.7889 79.1338C42.0107 79.0058 42.1695 78.8519 42.2654 78.6721V77.9449H41.4028C41.0714 77.9449 40.8086 78.0211 40.6141 78.1737C40.4225 78.3262 40.3266 78.5114 40.3266 78.7293C40.3266 78.9227 40.3869 79.0712 40.5073 79.1747C40.6278 79.2755 40.8099 79.3259 41.0536 79.3259Z" fill="#999591"/>
<path d="M44.0891 79.3994L44.7586 79.285V76.1267L44.0891 76.0123V75.4934H45.5678V79.285L46.2374 79.3994V79.9142H44.0891V79.3994ZM45.5678 74.3616H44.7586V73.5404H45.5678V74.3616Z" fill="#999591"/>
<path d="M46.8576 76.0123V75.4934H48.25L48.3281 76.1349C48.4541 75.9088 48.6088 75.7317 48.7922 75.6037C48.9784 75.4757 49.1907 75.4117 49.4289 75.4117C49.4919 75.4117 49.5562 75.4171 49.622 75.428C49.6904 75.4362 49.7424 75.4457 49.778 75.4566L49.6712 76.2043L49.2112 76.1798C48.9976 76.1798 48.8183 76.2302 48.6731 76.331C48.528 76.429 48.4157 76.568 48.3363 76.7477V79.285L49.0058 79.3994V79.9142H46.8576V79.3994L47.5271 79.285V76.1267L46.8576 76.0123Z" fill="#999591"/>
<path d="M52.2549 79.3708C52.5232 79.3708 52.7587 79.2891 52.9614 79.1257C53.1668 78.9595 53.2694 78.7566 53.2694 78.5169H53.9965L54.0047 78.5414C54.0184 78.9227 53.8472 79.2618 53.4913 79.5587C53.138 79.8529 52.7259 80 52.2549 80C51.6086 80 51.1144 79.7903 50.7721 79.3708C50.4325 78.9513 50.2627 78.4243 50.2627 77.7896V77.618C50.2627 76.9888 50.4339 76.4645 50.7762 76.045C51.1185 75.6228 51.6114 75.4117 52.2549 75.4117C52.6109 75.4117 52.9299 75.4703 53.2119 75.5874C53.4967 75.7045 53.7322 75.8652 53.9184 76.0695L53.9554 77.0501H53.3105L53.1339 76.3555C53.0381 76.2629 52.9148 76.188 52.7642 76.1308C52.6136 76.0736 52.4438 76.045 52.2549 76.045C51.8304 76.045 51.5265 76.1975 51.343 76.5026C51.1623 76.8049 51.0719 77.1767 51.0719 77.618V77.7896C51.0719 78.2418 51.1623 78.619 51.343 78.9214C51.5237 79.221 51.8277 79.3708 52.2549 79.3708Z" fill="#999591"/>
<path d="M57.9726 79.2605C57.8329 79.4975 57.6522 79.68 57.4304 79.808C57.2113 79.936 56.958 80 56.6705 80C56.1885 80 55.812 79.8461 55.5409 79.5383C55.2698 79.2305 55.1343 78.7511 55.1343 78.1001V76.1267L54.6249 76.0123V75.4934H55.9434V78.1083C55.9434 78.5795 56.0133 78.9037 56.1529 79.0807C56.2926 79.2578 56.5103 79.3463 56.806 79.3463C57.0936 79.3463 57.3304 79.2891 57.5166 79.1747C57.7056 79.0576 57.848 78.8928 57.9438 78.6803V76.1267L57.3482 76.0123V75.4934H58.753V79.285L59.2623 79.3994V79.9142H58.026L57.9726 79.2605Z" fill="#999591"/>
<path d="M61.3161 74.427V75.4934H62.1581V76.0899H61.3161V78.7743C61.3161 78.9813 61.3585 79.127 61.4434 79.2115C61.5311 79.2959 61.6461 79.3381 61.7885 79.3381C61.8597 79.3381 61.9391 79.3327 62.0267 79.3218C62.1171 79.3082 62.1924 79.2945 62.2526 79.2809L62.3635 79.8325C62.2868 79.8815 62.1746 79.921 62.0267 79.951C61.8788 79.9837 61.731 80 61.5831 80C61.2545 80 60.993 79.902 60.7986 79.7058C60.6041 79.507 60.5069 79.1965 60.5069 78.7743V76.0899H59.8045V75.4934H60.5069V74.427H61.3161Z" fill="#999591"/>
<path d="M66.3848 76.8826H65.7769L65.6454 76.3514C65.5469 76.2588 65.4223 76.1853 65.2717 76.1308C65.1238 76.0736 64.9554 76.045 64.7664 76.045C64.4789 76.045 64.2653 76.1076 64.1257 76.2329C63.986 76.3582 63.9162 76.5094 63.9162 76.6864C63.9162 76.8608 63.9778 76.9983 64.101 77.0991C64.2242 77.1999 64.4748 77.2898 64.8527 77.3688C65.414 77.4886 65.8316 77.6521 66.1055 77.8591C66.3793 78.0634 66.5162 78.3385 66.5162 78.6844C66.5162 79.0766 66.356 79.394 66.0357 79.6364C65.718 79.8788 65.3018 80 64.787 80C64.4501 80 64.1476 79.9619 63.8792 79.8856C63.6108 79.8066 63.3712 79.6936 63.1604 79.5465L63.1563 78.5373H63.7642L63.9162 79.1297C64.0093 79.2142 64.1352 79.2755 64.2941 79.3136C64.4556 79.3517 64.6199 79.3708 64.787 79.3708C65.0745 79.3708 65.299 79.3136 65.4606 79.1992C65.6249 79.0821 65.7071 78.9295 65.7071 78.7416C65.7071 78.5645 65.6386 78.4188 65.5017 78.3044C65.3675 78.19 65.1115 78.0906 64.7336 78.0062C64.1941 77.889 63.7875 77.7297 63.5136 77.5281C63.2398 77.3266 63.1029 77.0542 63.1029 76.711C63.1029 76.3514 63.2562 76.045 63.5629 75.7917C63.8724 75.5383 64.2735 75.4117 64.7664 75.4117C65.1032 75.4117 65.4058 75.4553 65.6742 75.5424C65.9426 75.6296 66.1657 75.7508 66.3437 75.9061L66.3848 76.8826Z" fill="#999591"/>
<path d="M69.3053 78.3126C69.3053 77.9803 69.4011 77.6902 69.5928 77.4423C69.7872 77.1917 70.0761 76.9411 70.4595 76.6905C70.2459 76.4209 70.0871 76.1812 69.983 75.9714C69.8789 75.759 69.8269 75.5411 69.8269 75.3177C69.8269 74.8574 69.9597 74.5033 70.2253 74.2554C70.4937 74.0048 70.862 73.8795 71.3303 73.8795C71.7629 73.8795 72.1148 74.0035 72.3859 74.2513C72.657 74.4992 72.7925 74.7975 72.7925 75.1461C72.7925 75.4131 72.72 75.6446 72.5748 75.8407C72.4325 76.0341 72.2202 76.2329 71.9382 76.4372L71.4905 76.7641L72.887 78.4352C72.9993 78.2581 73.0869 78.062 73.1499 77.8468C73.2129 77.6316 73.2444 77.4042 73.2444 77.1645H73.9673C73.9673 77.5213 73.9139 77.8523 73.8071 78.1573C73.7003 78.4624 73.5456 78.7361 73.343 78.9786L74.1028 79.8938L74.0946 79.9142H73.154L72.8049 79.4975C72.5858 79.6609 72.3435 79.7862 72.0778 79.8734C71.8122 79.9578 71.537 80 71.2522 80C70.658 80 70.1843 79.8434 69.831 79.5301C69.4805 79.2169 69.3053 78.8111 69.3053 78.3126ZM71.2522 79.3708C71.4494 79.3708 71.6438 79.3381 71.8355 79.2727C72.0272 79.2046 72.2079 79.1079 72.3777 78.9827L70.8949 77.2053L70.7306 77.3238C70.4814 77.5091 70.3157 77.6861 70.2336 77.855C70.1541 78.0239 70.1144 78.1764 70.1144 78.3126C70.1144 78.6204 70.2116 78.8737 70.4061 79.0725C70.6005 79.2714 70.8825 79.3708 71.2522 79.3708ZM70.6361 75.3095C70.6361 75.4539 70.6731 75.6051 70.747 75.7631C70.8209 75.9183 70.9318 76.0886 71.0797 76.2738L71.6465 75.8856C71.8026 75.7821 71.9081 75.6705 71.9628 75.5506C72.0203 75.428 72.0491 75.2932 72.0491 75.1461C72.0491 74.98 71.982 74.8329 71.8478 74.7049C71.7164 74.5768 71.5439 74.5128 71.3303 74.5128C71.1085 74.5128 70.9373 74.5904 70.8168 74.7457C70.6963 74.8982 70.6361 75.0862 70.6361 75.3095Z" fill="#999591"/>
<path d="M81.0158 75.7222H80.4038L80.2518 74.8724C80.1286 74.7689 79.9643 74.6831 79.7589 74.615C79.5535 74.5469 79.3153 74.5128 79.0442 74.5128C78.6143 74.5128 78.2843 74.6041 78.0543 74.7866C77.8243 74.9663 77.7093 75.202 77.7093 75.4934C77.7093 75.7522 77.8256 75.9687 78.0584 76.143C78.2939 76.3146 78.6732 76.4658 79.1962 76.5966C79.826 76.7518 80.3039 76.9806 80.6297 77.283C80.9583 77.5853 81.1226 77.9598 81.1226 78.4066C81.1226 78.886 80.9255 79.2714 80.5311 79.5628C80.1395 79.8543 79.6261 80 78.9908 80C78.5308 80 78.1214 79.9251 77.7627 79.7753C77.4067 79.6255 77.1164 79.4294 76.8919 79.1869V78.0797H77.4998L77.6559 78.9336C77.812 79.0616 77.9982 79.1665 78.2145 79.2482C78.4308 79.3299 78.6896 79.3708 78.9908 79.3708C79.3988 79.3708 79.7206 79.285 79.9561 79.1134C80.1943 78.9418 80.3134 78.7089 80.3134 78.4147C80.3134 78.1423 80.2107 77.9149 80.0054 77.7324C79.8 77.5472 79.4372 77.3919 78.9169 77.2666C78.2843 77.1168 77.79 76.8962 77.4341 76.6047C77.0781 76.3133 76.9001 75.9469 76.9001 75.5057C76.9001 75.0399 77.0986 74.6531 77.4957 74.3453C77.8927 74.0348 78.4089 73.8795 79.0442 73.8795C79.4632 73.8795 79.8438 73.9517 80.1861 74.0961C80.5311 74.2377 80.8077 74.4107 81.0158 74.615V75.7222Z" fill="#999591"/>
<path d="M81.7757 79.3994L82.4452 79.285V74.1737L81.7757 74.0593V73.5404H83.2544V76.0818C83.4078 75.8693 83.5954 75.7045 83.8172 75.5874C84.039 75.4703 84.2854 75.4117 84.5565 75.4117C85.033 75.4117 85.4027 75.5533 85.6656 75.8366C85.9284 76.1199 86.0599 76.5557 86.0599 77.1441V79.285L86.7294 79.3994V79.9142H84.5812V79.3994L85.2507 79.285V77.1359C85.2507 76.7709 85.1713 76.5012 85.0125 76.3269C84.8564 76.1526 84.6222 76.0654 84.3101 76.0654C84.0883 76.0654 83.8856 76.1185 83.7021 76.2248C83.5214 76.3283 83.3722 76.4699 83.2544 76.6497V79.285L83.924 79.3994V79.9142H81.7757V79.3994Z" fill="#999591"/>
<path d="M90.2167 79.9142C90.1921 79.7944 90.1729 79.6868 90.1592 79.5914C90.1455 79.4961 90.1359 79.4008 90.1304 79.3054C89.9743 79.5043 89.7786 79.6704 89.5431 79.8039C89.3103 79.9346 89.0611 80 88.7955 80C88.3327 80 87.9808 79.8883 87.7399 79.665C87.4989 79.4389 87.3784 79.1216 87.3784 78.713C87.3784 78.2935 87.5482 77.9707 87.8877 77.7447C88.23 77.5159 88.6983 77.4015 89.2925 77.4015H90.1263V76.8867C90.1263 76.6279 90.0442 76.4236 89.8799 76.2738C89.7156 76.1213 89.4869 76.045 89.1939 76.045C88.9913 76.045 88.8119 76.0709 88.6558 76.1226C88.5025 76.1744 88.3779 76.2452 88.282 76.3351L88.1958 76.8009H87.5714V75.9428C87.7741 75.7821 88.0192 75.6541 88.3067 75.5588C88.5942 75.4607 88.9064 75.4117 89.2432 75.4117C89.7471 75.4117 90.1551 75.5397 90.4673 75.7958C90.7794 76.0518 90.9355 76.4182 90.9355 76.8948V79.0235C90.9355 79.0807 90.9355 79.1365 90.9355 79.191C90.9383 79.2455 90.9424 79.3 90.9478 79.3545L91.2764 79.3994V79.9142H90.2167ZM88.9146 79.3259C89.183 79.3259 89.4281 79.2618 89.6499 79.1338C89.8717 79.0058 90.0305 78.8519 90.1263 78.6721V77.9449H89.2637C88.9324 77.9449 88.6695 78.0211 88.4751 78.1737C88.2834 78.3262 88.1876 78.5114 88.1876 78.7293C88.1876 78.9227 88.2478 79.0712 88.3683 79.1747C88.4888 79.2755 88.6709 79.3259 88.9146 79.3259Z" fill="#999591"/>
<path d="M93.4082 76.0123L92.8743 76.094L93.7902 78.6108L93.8642 78.9295H93.8888L93.9669 78.6108L94.8541 76.094L94.316 76.0123V75.4934H96.033V76.0123L95.6674 76.0736L94.1764 79.9142H93.5643L92.0569 76.0736L91.6913 76.0123V75.4934H93.4082V76.0123Z" fill="#999591"/>
<path d="M98.555 80C97.9361 80 97.4432 79.7957 97.0763 79.3871C96.7121 78.9758 96.53 78.4433 96.53 77.7896V77.6098C96.53 76.9806 96.7175 76.4576 97.0927 76.0409C97.4706 75.6214 97.9169 75.4117 98.4318 75.4117C99.0287 75.4117 99.4806 75.5915 99.7872 75.951C100.097 76.3106 100.251 76.79 100.251 77.3892V77.8918H97.3679L97.3556 77.9122C97.3638 78.3371 97.472 78.6871 97.6801 78.9622C97.8882 79.2346 98.1798 79.3708 98.555 79.3708C98.8288 79.3708 99.0684 79.3327 99.2738 79.2564C99.4819 79.1774 99.6613 79.0698 99.8119 78.9336L100.128 79.4566C99.9693 79.6091 99.7585 79.7385 99.4956 79.8448C99.2355 79.9483 98.9219 80 98.555 80ZM98.4318 76.045C98.1607 76.045 97.9293 76.1594 97.7376 76.3882C97.5459 76.6143 97.4282 76.8989 97.3843 77.2421L97.3926 77.2625H99.4422V77.1563C99.4422 76.8403 99.3573 76.5761 99.1875 76.3637C99.0178 76.1512 98.7658 76.045 98.4318 76.045Z" fill="#999591"/>
<path d="M104.453 76.8826H103.845L103.714 76.3514C103.615 76.2588 103.491 76.1853 103.34 76.1308C103.192 76.0736 103.024 76.045 102.835 76.045C102.548 76.045 102.334 76.1076 102.194 76.2329C102.055 76.3582 101.985 76.5094 101.985 76.6864C101.985 76.8608 102.046 76.9983 102.17 77.0991C102.293 77.1999 102.543 77.2898 102.921 77.3688C103.483 77.4886 103.9 77.6521 104.174 77.8591C104.448 78.0634 104.585 78.3385 104.585 78.6844C104.585 79.0766 104.425 79.394 104.104 79.6364C103.787 79.8788 103.37 80 102.856 80C102.519 80 102.216 79.9619 101.948 79.8856C101.679 79.8066 101.44 79.6936 101.229 79.5465L101.225 78.5373H101.833L101.985 79.1297C102.078 79.2142 102.204 79.2755 102.363 79.3136C102.524 79.3517 102.689 79.3708 102.856 79.3708C103.143 79.3708 103.368 79.3136 103.529 79.1992C103.694 79.0821 103.776 78.9295 103.776 78.7416C103.776 78.5645 103.707 78.4188 103.57 78.3044C103.436 78.19 103.18 78.0906 102.802 78.0062C102.263 77.889 101.856 77.7297 101.582 77.5281C101.308 77.3266 101.171 77.0542 101.171 76.711C101.171 76.3514 101.325 76.045 101.632 75.7917C101.941 75.5383 102.342 75.4117 102.835 75.4117C103.172 75.4117 103.474 75.4553 103.743 75.5424C104.011 75.6296 104.234 75.7508 104.412 75.9061L104.453 76.8826Z" fill="#999591"/>
<path d="M49.7328 5.43407L50.1764 5.37279L52.2671 0H52.9613L55.0151 5.37279L55.4546 5.43407V5.94888H53.7376V5.43407L54.1895 5.35644L53.7951 4.26146H51.4004L50.9938 5.35644L51.4456 5.43407V5.94888H49.7328V5.43407ZM51.651 3.58731H53.5487L52.6204 1.0337H52.5957L51.651 3.58731Z" fill="#999591"/>
<path d="M57.1017 2.04697L56.5924 2.13686L57.1715 4.33909L57.266 4.87432H57.2906L57.4057 4.33909L58.2929 1.52808H58.9419L59.8332 4.33909L59.9605 4.93561H59.9852L60.1043 4.33909L60.6506 2.13686L60.1331 2.04697V1.52808H61.8254V2.04697L61.4393 2.10417L60.3179 5.94888H59.6648L58.8022 3.25636L58.6174 2.51275L58.5927 2.51683L58.4202 3.25636L57.5741 5.94888H56.921L55.7996 2.10417L55.4094 2.04697V1.52808H57.1017V2.04697Z" fill="#999591"/>
<path d="M64.5117 6.03468C63.8928 6.03468 63.3999 5.83039 63.033 5.42182C62.6688 5.01052 62.4867 4.478 62.4867 3.82428V3.64451C62.4867 3.0153 62.6743 2.49232 63.0494 2.07557C63.4273 1.6561 63.8737 1.44636 64.3885 1.44636C64.9854 1.44636 65.4373 1.62614 65.7439 1.98568C66.0534 2.34523 66.2081 2.82463 66.2081 3.42388V3.92643H63.3246L63.3123 3.94685C63.3205 4.37177 63.4287 4.72179 63.6368 4.9969C63.8449 5.26928 64.1365 5.40547 64.5117 5.40547C64.7855 5.40547 65.0251 5.36734 65.2305 5.29107C65.4386 5.21208 65.618 5.10449 65.7686 4.9683L66.0849 5.49128C65.9261 5.64381 65.7152 5.77319 65.4523 5.87942C65.1922 5.98293 64.8786 6.03468 64.5117 6.03468ZM64.3885 2.07966C64.1174 2.07966 63.886 2.19406 63.6943 2.42286C63.5026 2.64894 63.3849 2.93358 63.341 3.27679L63.3493 3.29722H65.3989V3.19099C65.3989 2.87502 65.314 2.61081 65.1443 2.39835C64.9745 2.18589 64.7225 2.07966 64.3885 2.07966Z" fill="#999591"/>
<path d="M70.4101 2.91724H69.8022L69.6708 2.38609C69.5722 2.29348 69.4476 2.21994 69.297 2.16546C69.1491 2.10826 68.9807 2.07966 68.7917 2.07966C68.5042 2.07966 68.2906 2.14231 68.151 2.2676C68.0113 2.3929 67.9415 2.54407 67.9415 2.72112C67.9415 2.89545 68.0031 3.033 68.1263 3.13379C68.2495 3.23457 68.5001 3.32446 68.878 3.40345C69.4394 3.5233 69.857 3.68673 70.1308 3.89374C70.4046 4.09803 70.5415 4.37314 70.5415 4.71906C70.5415 5.1113 70.3814 5.42863 70.061 5.67105C69.7433 5.91347 69.3271 6.03468 68.8123 6.03468C68.4755 6.03468 68.1729 5.99655 67.9045 5.92028C67.6362 5.84129 67.3965 5.72825 67.1857 5.58116L67.1816 4.57198H67.7895L67.9415 5.16441C68.0346 5.24885 68.1605 5.31014 68.3194 5.34827C68.4809 5.38641 68.6452 5.40547 68.8123 5.40547C69.0998 5.40547 69.3244 5.34827 69.4859 5.23387C69.6502 5.11675 69.7324 4.96421 69.7324 4.77627C69.7324 4.59922 69.6639 4.45349 69.527 4.33909C69.3928 4.22469 69.1368 4.12527 68.7589 4.04083C68.2194 3.9237 67.8128 3.76436 67.5389 3.56279C67.2651 3.36123 67.1282 3.08884 67.1282 2.74564C67.1282 2.38609 67.2815 2.07966 67.5882 1.82634C67.8977 1.57302 68.2988 1.44636 68.7917 1.44636C69.1286 1.44636 69.4311 1.48994 69.6995 1.57711C69.9679 1.66427 70.191 1.78548 70.369 1.94074L70.4101 2.91724Z" fill="#999591"/>
<path d="M71.3014 3.69762C71.3014 3.0439 71.4794 2.50594 71.8354 2.08374C72.1914 1.65882 72.6747 1.44636 73.2854 1.44636C73.8988 1.44636 74.3835 1.65746 74.7394 2.07966C75.0982 2.50185 75.2775 3.04117 75.2775 3.69762V3.78751C75.2775 4.44668 75.0995 4.986 74.7436 5.40547C74.3876 5.82495 73.9042 6.03468 73.2936 6.03468C72.6775 6.03468 72.1914 5.82495 71.8354 5.40547C71.4794 4.98328 71.3014 4.44396 71.3014 3.78751V3.69762ZM72.1106 3.78751C72.1106 4.25601 72.2092 4.6428 72.4064 4.94787C72.6063 5.25294 72.902 5.40547 73.2936 5.40547C73.677 5.40547 73.9686 5.25294 74.1685 4.94787C74.3684 4.6428 74.4683 4.25601 74.4683 3.78751V3.69762C74.4683 3.23457 74.3684 2.84914 74.1685 2.54135C73.9686 2.23355 73.6742 2.07966 73.2854 2.07966C72.8965 2.07966 72.6035 2.23355 72.4064 2.54135C72.2092 2.84914 72.1106 3.23457 72.1106 3.69762V3.78751Z" fill="#999591"/>
<path d="M75.8608 5.43407L76.5303 5.31967V2.16137L75.8608 2.04697V1.52808H77.2574L77.3108 2.10417C77.4532 1.89444 77.6366 1.73237 77.8612 1.61796C78.0857 1.50356 78.3459 1.44636 78.6416 1.44636C78.9373 1.44636 79.1906 1.51446 79.4015 1.65065C79.6151 1.78684 79.7753 1.99113 79.8821 2.26352C80.0217 2.01292 80.2066 1.81408 80.4366 1.66699C80.6666 1.51991 80.935 1.44636 81.2417 1.44636C81.6962 1.44636 82.055 1.60162 82.3178 1.91214C82.5807 2.21994 82.7122 2.68435 82.7122 3.30539V5.31967L83.3817 5.43407V5.94888H81.2293V5.43407L81.8989 5.31967V3.29722C81.8989 2.8614 81.8236 2.55361 81.673 2.37383C81.5224 2.19133 81.2992 2.10009 81.0034 2.10009C80.7214 2.10009 80.4941 2.19951 80.3216 2.39835C80.1518 2.59446 80.0532 2.84233 80.0258 3.14196V5.31967L80.6954 5.43407V5.94888H78.5471V5.43407L79.2167 5.31967V3.29722C79.2167 2.88319 79.1386 2.58084 78.9825 2.39018C78.8292 2.19678 78.606 2.10009 78.313 2.10009C78.0665 2.10009 77.8639 2.15048 77.7051 2.25126C77.5463 2.35204 77.4244 2.49368 77.3395 2.67618V5.31967L78.009 5.43407V5.94888H75.8608V5.43407Z" fill="#999591"/>
<path d="M85.9612 6.03468C85.3424 6.03468 84.8495 5.83039 84.4825 5.42182C84.1183 5.01052 83.9362 4.478 83.9362 3.82428V3.64451C83.9362 3.0153 84.1238 2.49232 84.4989 2.07557C84.8768 1.6561 85.3232 1.44636 85.838 1.44636C86.435 1.44636 86.8868 1.62614 87.1935 1.98568C87.5029 2.34523 87.6576 2.82463 87.6576 3.42388V3.92643H84.7742L84.7618 3.94685C84.77 4.37177 84.8782 4.72179 85.0863 4.9969C85.2944 5.26928 85.5861 5.40547 85.9612 5.40547C86.2351 5.40547 86.4747 5.36734 86.68 5.29107C86.8882 5.21208 87.0675 5.10449 87.2181 4.9683L87.5344 5.49128C87.3756 5.64381 87.1647 5.77319 86.9019 5.87942C86.6417 5.98293 86.3282 6.03468 85.9612 6.03468ZM85.838 2.07966C85.5669 2.07966 85.3355 2.19406 85.1438 2.42286C84.9521 2.64894 84.8344 2.93358 84.7906 3.27679L84.7988 3.29722H86.8485V3.19099C86.8485 2.87502 86.7636 2.61081 86.5938 2.39835C86.424 2.18589 86.1721 2.07966 85.838 2.07966Z" fill="#999591"/>
<rect y="63.3271" width="137.6" height="1.19538" fill="#FF9000"/>
<rect y="15.5119" width="137.6" height="1.19538" fill="#FF9000"/>
<path d="M31.8703 38.6879V47.0891C31.8703 47.8031 31.7245 48.4837 31.4329 49.1308C31.1637 49.7556 30.7936 50.3022 30.3225 50.7708C29.8514 51.2394 29.2906 51.6076 28.64 51.8754C28.0119 52.1654 27.3389 52.3105 26.6211 52.3105C25.9032 52.3105 25.2303 52.1766 24.6022 51.9088C23.974 51.6411 23.4244 51.2841 22.9534 50.8378C22.4823 50.3692 22.1009 49.8337 21.8093 49.2312C21.5401 48.6064 21.3943 47.937 21.3719 47.223V41.0309C21.3046 40.3392 20.9905 39.8371 20.4297 39.5247C20.7437 39.3685 21.0578 39.2904 21.3719 39.2904V31.3913C21.3943 30.6773 21.5401 30.0079 21.8093 29.3831C22.1009 28.7583 22.4823 28.2228 22.9534 27.7765C23.4244 27.3079 23.974 26.9398 24.6022 26.672C25.2303 26.4042 25.9032 26.2703 26.6211 26.2703C27.3389 26.2703 28.0119 26.4154 28.64 26.7055C29.2906 26.9732 29.8514 27.3414 30.3225 27.81C30.7936 28.2786 31.1637 28.8364 31.4329 29.4835C31.7245 30.1083 31.8703 30.7889 31.8703 31.5252C31.8703 31.9046 31.904 32.1835 31.9713 32.362C32.061 32.5405 32.1507 32.6855 32.2405 32.7971C32.3302 32.9087 32.4087 33.0091 32.476 33.0983C32.5657 33.1876 32.6106 33.3326 32.6106 33.5335H30.8608C30.5019 33.4888 30.3225 33.2992 30.3225 32.9645C30.3225 33.2992 30.143 33.4888 29.7841 33.5335H28.0007C28.0007 33.3326 28.0343 33.1876 28.1016 33.0983C28.1914 33.0091 28.2811 32.9087 28.3708 32.7971C28.4606 32.6855 28.5391 32.5405 28.6064 32.362C28.6961 32.1835 28.741 31.8934 28.741 31.4918V31.4583C28.741 31.1682 28.7297 30.8223 28.7073 30.4207C28.6849 29.9967 28.6064 29.5951 28.4718 29.2158C28.3372 28.8364 28.1241 28.5129 27.8324 28.2451C27.5408 27.9773 27.137 27.8435 26.6211 27.8435C26.0827 27.8435 25.6677 27.9885 25.3761 28.2786C25.1069 28.5463 24.905 28.8699 24.7704 29.2492C24.6358 29.6286 24.5573 30.0302 24.5349 30.4542C24.5124 30.8781 24.5012 31.2351 24.5012 31.5252V39.2904C24.8153 39.2904 25.1293 39.3685 25.4434 39.5247C24.8826 39.8371 24.5685 40.3392 24.5012 41.0309V47.0891C24.5012 47.3791 24.5124 47.7362 24.5349 48.1601C24.5573 48.5618 24.6358 48.9634 24.7704 49.3651C24.905 49.7444 25.1069 50.068 25.3761 50.3357C25.6677 50.6035 26.0827 50.7374 26.6211 50.7374C27.1595 50.7374 27.5633 50.6035 27.8324 50.3357C28.1241 50.068 28.3372 49.7444 28.4718 49.3651C28.6064 48.9634 28.6849 48.5618 28.7073 48.1601C28.7297 47.7362 28.741 47.3791 28.741 47.0891V40.2276C28.4942 40.2499 28.2811 40.3503 28.1016 40.5288C27.9446 40.7073 27.8661 40.9193 27.8661 41.1648V41.1982C27.8437 41.5329 27.7539 41.823 27.5969 42.0685C27.4623 42.2916 27.2604 42.4924 26.9912 42.6709C26.722 42.8271 26.3295 42.9052 25.8135 42.9052V38.6879H31.8703ZM23.1889 37.7173C23.1889 37.5834 23.1777 37.4495 23.1552 37.3156C23.1552 37.1818 23.1552 37.059 23.1552 36.9475V36.1776C23.1328 35.6867 23.1216 35.2182 23.1216 34.7719C23.1216 34.3256 23.1104 33.9016 23.088 33.5C23.0655 33.2992 23.0543 33.1207 23.0543 32.9645C23.0543 32.786 23.0431 32.6074 23.0207 32.4289C23.0207 32.2727 23.0094 32.1277 22.987 31.9938C22.987 31.8376 22.987 31.7037 22.987 31.5922C22.987 31.4806 22.9758 31.3802 22.9534 31.2909C22.9534 31.2017 22.9534 31.1236 22.9534 31.0566V30.8893C22.9309 30.8893 22.9197 30.9004 22.9197 30.9228V31.0566C22.9197 31.1236 22.9085 31.2017 22.8861 31.2909C22.8861 31.3802 22.8861 31.4806 22.8861 31.5922C22.8861 31.7037 22.8748 31.8376 22.8524 31.9938C22.8524 32.1277 22.8524 32.2727 22.8524 32.4289C22.83 32.6074 22.8188 32.786 22.8188 32.9645C22.8188 33.1207 22.8075 33.2992 22.7851 33.5C22.7627 33.9016 22.7515 34.3256 22.7515 34.7719C22.7515 35.2182 22.7402 35.6867 22.7178 36.1776V36.9475C22.7178 37.059 22.7066 37.1818 22.6842 37.3156C22.6842 37.4495 22.6842 37.5834 22.6842 37.7173V40.8301C22.6842 40.897 22.6842 40.9639 22.6842 41.0309C22.7066 41.0978 22.7178 41.1536 22.7178 41.1982V42.3362C22.7178 42.5817 22.7178 42.8271 22.7178 43.0726C22.7402 43.2957 22.7515 43.5189 22.7515 43.742C22.7515 43.9875 22.7515 44.2218 22.7515 44.4449C22.7739 44.6457 22.7851 44.8354 22.7851 45.0139C22.8075 45.2147 22.8188 45.4044 22.8188 45.5829C22.8188 45.7614 22.83 45.9288 22.8524 46.085C22.8524 46.2635 22.8524 46.4197 22.8524 46.5535C22.8748 46.6874 22.8861 46.8101 22.8861 46.9217C22.8861 47.0333 22.8861 47.1337 22.8861 47.223C22.9085 47.3122 22.9197 47.3903 22.9197 47.4572V47.6246C22.9197 47.6469 22.9309 47.6581 22.9534 47.6581V47.4572C22.9534 47.3903 22.9534 47.3122 22.9534 47.223C22.9758 47.1337 22.987 47.0333 22.987 46.9217C22.987 46.8101 22.987 46.6874 22.987 46.5535C23.0094 46.4197 23.0207 46.2635 23.0207 46.085C23.0431 45.9288 23.0543 45.7614 23.0543 45.5829C23.0543 45.4044 23.0655 45.2147 23.088 45.0139C23.088 44.8354 23.088 44.6457 23.088 44.4449C23.1104 44.2218 23.1216 43.9875 23.1216 43.742C23.1216 43.5189 23.1216 43.2957 23.1216 43.0726C23.144 42.8271 23.1552 42.5817 23.1552 42.3362V41.5999C23.1552 41.4214 23.1665 41.2875 23.1889 41.1982V37.7173ZM30.5244 42.5705C30.5019 42.3474 30.4907 42.1466 30.4907 41.9681C30.4907 41.7672 30.4795 41.5776 30.4571 41.3991C30.4346 41.0644 30.401 40.7854 30.3561 40.5623C30.3561 40.5177 30.3449 40.473 30.3225 40.4284C30.3225 40.3838 30.3225 40.3503 30.3225 40.328V40.2276L30.2888 40.2611V40.328C30.2888 40.3503 30.2776 40.3838 30.2552 40.4284C30.2552 40.473 30.2552 40.5177 30.2552 40.5623C30.2103 40.7854 30.1767 41.0644 30.1542 41.3991C30.1318 41.5776 30.1206 41.7672 30.1206 41.9681C30.1206 42.1466 30.1094 42.3474 30.0869 42.5705V42.9052C30.0869 42.9722 30.0757 43.0391 30.0533 43.1061C30.0533 43.1507 30.0533 43.1953 30.0533 43.2399V44.6457C30.0533 44.7127 30.0645 44.7684 30.0869 44.8131V45.3151C30.0869 45.4267 30.0869 45.5271 30.0869 45.6164C30.1094 45.7056 30.1206 45.806 30.1206 45.9176C30.1206 46.0292 30.1206 46.1296 30.1206 46.2188C30.143 46.3081 30.1542 46.3973 30.1542 46.4866C30.1767 46.5759 30.1879 46.6651 30.1879 46.7544C30.1879 46.8213 30.1991 46.8882 30.2215 46.9552C30.2215 47.0221 30.2215 47.0891 30.2215 47.156C30.244 47.223 30.2552 47.2787 30.2552 47.3234C30.2552 47.368 30.2552 47.4126 30.2552 47.4572C30.2776 47.5019 30.2888 47.5353 30.2888 47.5577V47.6246C30.2888 47.6469 30.3 47.6581 30.3225 47.6581V47.5577C30.3225 47.5353 30.3225 47.5019 30.3225 47.4572C30.3449 47.4126 30.3561 47.368 30.3561 47.3234C30.3561 47.2787 30.3561 47.223 30.3561 47.156C30.3785 47.0891 30.3898 47.0221 30.3898 46.9552C30.4122 46.8882 30.4234 46.8213 30.4234 46.7544C30.4234 46.6651 30.4346 46.5759 30.4571 46.4866C30.4571 46.3973 30.4571 46.3081 30.4571 46.2188C30.4795 46.1296 30.4907 46.0292 30.4907 45.9176C30.4907 45.806 30.4907 45.7056 30.4907 45.6164C30.5131 45.5271 30.5244 45.4267 30.5244 45.3151V44.9804C30.5244 44.8912 30.5356 44.8354 30.558 44.8131V43.2399C30.558 43.1953 30.5468 43.1507 30.5244 43.1061C30.5244 43.0391 30.5244 42.9722 30.5244 42.9052V42.5705Z" fill="#F4EDE8"/>
<path d="M44.0943 39.3239C44.4757 39.3239 44.7897 39.402 45.0365 39.5582C44.7897 39.7144 44.5766 39.9264 44.3972 40.1941C44.2401 40.4619 44.1392 40.752 44.0943 41.0644V46.1184C44.0719 46.8325 43.9149 47.5019 43.6232 48.1267C43.3541 48.7291 42.9839 49.2647 42.5128 49.7332C42.0417 50.1795 41.4921 50.5365 40.864 50.8043C40.2359 51.0721 39.5629 51.206 38.8451 51.206C38.1273 51.206 37.4543 51.0721 36.8262 50.8043C36.1981 50.5365 35.6485 50.1795 35.1774 49.7332C34.7063 49.2647 34.3249 48.7291 34.0333 48.1267C33.7641 47.5019 33.6183 46.8325 33.5959 46.1184V41.0644C33.5286 40.3726 33.2145 39.8706 32.6537 39.5582C32.9005 39.402 33.2145 39.3239 33.5959 39.3239V32.8641C33.6183 32.1723 33.7641 31.5141 34.0333 30.8893C34.3249 30.2645 34.7063 29.729 35.1774 29.2827C35.6485 28.8141 36.1981 28.4459 36.8262 28.1782C37.4543 27.9104 38.1273 27.7765 38.8451 27.7765C39.5629 27.7765 40.2359 27.9104 40.864 28.1782C41.4921 28.4459 42.0417 28.8141 42.5128 29.2827C42.9839 29.729 43.3541 30.2645 43.6232 30.8893C43.9149 31.5141 44.0719 32.1723 44.0943 32.8641V39.3239ZM35.4129 38.1189C35.4129 38.0074 35.4017 37.907 35.3793 37.8177C35.3793 37.7061 35.3793 37.5946 35.3793 37.483V36.8471C35.3568 36.4231 35.3456 36.0215 35.3456 35.6421C35.3456 35.2628 35.3344 34.9058 35.312 34.5711C35.2895 34.4149 35.2783 34.2587 35.2783 34.1025C35.2783 33.9463 35.2671 33.8012 35.2447 33.6673C35.2447 33.5335 35.2335 33.4107 35.211 33.2992C35.211 33.1876 35.211 33.0872 35.211 32.9979C35.211 32.8864 35.1998 32.7971 35.1774 32.7302C35.1774 32.6409 35.1774 32.574 35.1774 32.5293V32.362C35.1549 32.362 35.1437 32.3732 35.1437 32.3955V32.5293C35.1437 32.574 35.1325 32.6409 35.1101 32.7302C35.1101 32.7971 35.1101 32.8864 35.1101 32.9979C35.1101 33.0872 35.0989 33.1876 35.0764 33.2992C35.0764 33.4107 35.0764 33.5335 35.0764 33.6673C35.054 33.8012 35.0428 33.9463 35.0428 34.1025C35.0428 34.2587 35.0316 34.4149 35.0091 34.5711C34.9867 34.9058 34.9755 35.2628 34.9755 35.6421C34.9755 36.0215 34.9643 36.4231 34.9418 36.8471V37.483C34.9418 37.5946 34.9306 37.7061 34.9082 37.8177C34.9082 37.907 34.9082 38.0074 34.9082 38.1189V40.7631C34.9082 40.9193 34.9194 41.0309 34.9418 41.0978V42.0685C34.9418 42.2693 34.9418 42.4701 34.9418 42.6709C34.9643 42.8718 34.9755 43.0614 34.9755 43.2399C34.9755 43.4408 34.9755 43.6304 34.9755 43.8089C34.9979 43.9651 35.0091 44.1325 35.0091 44.311C35.0316 44.4895 35.0428 44.6569 35.0428 44.8131C35.0428 44.9469 35.054 45.0808 35.0764 45.2147C35.0764 45.3486 35.0764 45.4713 35.0764 45.5829C35.0989 45.6945 35.1101 45.806 35.1101 45.9176C35.1101 46.0292 35.1101 46.1296 35.1101 46.2188C35.1325 46.2858 35.1437 46.3416 35.1437 46.3862V46.4866C35.1437 46.5089 35.1549 46.5201 35.1774 46.5201V46.3862C35.1774 46.3416 35.1774 46.2858 35.1774 46.2188C35.1998 46.1296 35.211 46.0292 35.211 45.9176C35.211 45.806 35.211 45.6945 35.211 45.5829C35.2335 45.4713 35.2447 45.3486 35.2447 45.2147C35.2671 45.0808 35.2783 44.9469 35.2783 44.8131C35.2783 44.6569 35.2895 44.4895 35.312 44.311C35.312 44.1325 35.312 43.9651 35.312 43.8089C35.3344 43.6304 35.3456 43.4408 35.3456 43.2399C35.3456 43.0614 35.3456 42.8718 35.3456 42.6709C35.368 42.4701 35.3793 42.2693 35.3793 42.0685V41.0978C35.4017 41.0309 35.4129 40.9193 35.4129 40.7631V38.1189ZM40.965 32.9979C40.965 32.7079 40.9538 32.3508 40.9313 31.9269C40.9089 31.5029 40.8304 31.1013 40.6958 30.7219C40.5612 30.3426 40.3481 30.0191 40.0565 29.7513C39.7873 29.4612 39.3835 29.3162 38.8451 29.3162C38.3067 29.3162 37.8917 29.4612 37.6001 29.7513C37.3309 30.0191 37.129 30.3426 36.9944 30.7219C36.8598 31.1013 36.7813 31.5029 36.7589 31.9269C36.7364 32.3508 36.7252 32.7079 36.7252 32.9979V39.3239C37.1066 39.3239 37.4206 39.402 37.6674 39.5582C37.1066 39.8706 36.7925 40.3726 36.7252 41.0644V45.9845C36.7252 46.2746 36.7364 46.6316 36.7589 47.0556C36.7813 47.4572 36.8598 47.8589 36.9944 48.2605C37.129 48.6399 37.3309 48.9634 37.6001 49.2312C37.8917 49.499 38.3067 49.6328 38.8451 49.6328C39.3835 49.6328 39.7873 49.499 40.0565 49.2312C40.3481 48.9634 40.5612 48.6399 40.6958 48.2605C40.8304 47.8589 40.9089 47.4572 40.9313 47.0556C40.9538 46.6316 40.965 46.2746 40.965 45.9845V41.0644C40.9201 40.3949 40.6061 39.8929 40.0228 39.5582C40.2696 39.402 40.5836 39.3239 40.965 39.3239V32.9979ZM42.782 38.1189C42.782 38.0074 42.782 37.907 42.782 37.8177C42.782 37.7061 42.7708 37.5946 42.7484 37.483V36.8471C42.7484 36.4231 42.7372 36.0215 42.7147 35.6421C42.7147 35.2628 42.7035 34.9058 42.6811 34.5711C42.6586 34.4149 42.6474 34.2587 42.6474 34.1025C42.6474 33.9463 42.6362 33.8012 42.6138 33.6673C42.6138 33.5335 42.6026 33.4107 42.5801 33.2992C42.5801 33.1876 42.5801 33.0872 42.5801 32.9979C42.5801 32.8864 42.5689 32.7971 42.5465 32.7302C42.5465 32.6409 42.5465 32.574 42.5465 32.5293V32.362C42.524 32.362 42.5128 32.3732 42.5128 32.3955V32.5293C42.5128 32.574 42.5128 32.6409 42.5128 32.7302C42.5128 32.7971 42.5016 32.8864 42.4792 32.9979C42.4792 33.0872 42.468 33.1876 42.4455 33.2992C42.4455 33.4107 42.4455 33.5335 42.4455 33.6673C42.4231 33.8012 42.4119 33.9463 42.4119 34.1025C42.4119 34.2587 42.4007 34.4149 42.3782 34.5711C42.3558 34.9058 42.3446 35.2628 42.3446 35.6421C42.3446 36.0215 42.3334 36.4231 42.3109 36.8471V38.1189C42.2885 38.3421 42.2773 38.5652 42.2773 38.7884C42.2773 39.0115 42.2773 39.2346 42.2773 39.4578C42.2773 39.6809 42.2773 39.904 42.2773 40.1272C42.2773 40.328 42.2885 40.54 42.3109 40.7631V42.0685C42.3109 42.2693 42.3109 42.4701 42.3109 42.6709C42.3334 42.8718 42.3446 43.0614 42.3446 43.2399C42.3446 43.4408 42.3446 43.6304 42.3446 43.8089C42.367 43.9651 42.3782 44.1325 42.3782 44.311C42.4007 44.4895 42.4119 44.6569 42.4119 44.8131C42.4119 44.9469 42.4231 45.0808 42.4455 45.2147C42.4455 45.3486 42.4455 45.4713 42.4455 45.5829C42.468 45.6945 42.4792 45.806 42.4792 45.9176C42.5016 46.0292 42.5128 46.1296 42.5128 46.2188C42.5128 46.2858 42.5128 46.3416 42.5128 46.3862V46.4866C42.5128 46.5089 42.524 46.5201 42.5465 46.5201V46.3862C42.5465 46.3416 42.5465 46.2858 42.5465 46.2188C42.5689 46.1296 42.5801 46.0292 42.5801 45.9176C42.5801 45.806 42.5801 45.6945 42.5801 45.5829C42.6026 45.4713 42.6138 45.3486 42.6138 45.2147C42.6362 45.0808 42.6474 44.9469 42.6474 44.8131C42.6474 44.6569 42.6586 44.4895 42.6811 44.311C42.6811 44.1325 42.6811 43.9651 42.6811 43.8089C42.7035 43.6304 42.7147 43.4408 42.7147 43.2399C42.7147 43.0614 42.7147 42.8718 42.7147 42.6709C42.7372 42.4701 42.7484 42.2693 42.7484 42.0685V41.4325C42.7484 41.3879 42.7484 41.3321 42.7484 41.2652C42.7708 41.1982 42.782 41.1425 42.782 41.0978V38.1189Z" fill="#F4EDE8"/>
<path d="M56.5812 35.0062C56.5812 36.0103 56.3345 36.914 55.841 37.7173C55.3474 38.5206 54.6857 39.1454 53.8557 39.5916C54.2595 39.904 54.6296 40.2722 54.9661 40.6962C55.3026 41.0978 55.583 41.5441 55.8073 42.035C56.0541 42.5259 56.2447 43.028 56.3793 43.5412C56.5139 44.0544 56.5812 44.5565 56.5812 45.0474V47.1895C56.5588 47.9035 56.413 48.5729 56.1438 49.1977C55.8746 49.8002 55.5045 50.3357 55.0334 50.8043C54.5623 51.2506 54.0127 51.6076 53.3846 51.8754C52.7565 52.1654 52.0835 52.3105 51.3656 52.3105H48.2027C48.0456 52.3105 47.911 52.2547 47.7989 52.1431C47.7091 52.0316 47.6643 51.8977 47.6643 51.7415C47.6643 51.8977 47.6082 52.0316 47.496 52.1431C47.3839 52.2547 47.2605 52.3105 47.1259 52.3105H45.3425C45.3425 52.1097 45.3761 51.9646 45.4434 51.8754C45.5332 51.7861 45.6229 51.6857 45.7126 51.5741C45.8024 51.4849 45.8809 51.351 45.9482 51.1725C46.0379 50.994 46.0828 50.7151 46.0828 50.3357V40.9974C46.0155 40.328 45.7014 39.8371 45.1406 39.5247C45.4322 39.3462 45.7463 39.2569 46.0828 39.2569V28.2451C46.0828 27.8658 46.0379 27.5869 45.9482 27.4083C45.8809 27.2298 45.8024 27.0959 45.7126 27.0067C45.6229 26.8951 45.5332 26.7947 45.4434 26.7055C45.3761 26.6162 45.3425 26.4712 45.3425 26.2703H47.1259C47.2605 26.2703 47.3839 26.3261 47.496 26.4377C47.6082 26.5269 47.6643 26.6497 47.6643 26.8059C47.6643 26.4489 47.8437 26.2703 48.2027 26.2703H51.3656C52.0835 26.2703 52.7565 26.4042 53.3846 26.672C54.0127 26.9398 54.5623 27.3079 55.0334 27.7765C55.5045 28.2228 55.8746 28.7583 56.1438 29.3831C56.413 30.0079 56.5588 30.6662 56.5812 31.3579V35.0062ZM47.8998 37.483C47.8998 37.3268 47.8886 37.1818 47.8662 37.0479C47.8662 36.8917 47.8662 36.7466 47.8662 36.6128V35.7425C47.8437 35.1624 47.8325 34.6157 47.8325 34.1025C47.8325 33.5893 47.8213 33.1095 47.7989 32.6632C47.7764 32.4178 47.7652 32.1946 47.7652 31.9938C47.7652 31.793 47.754 31.6033 47.7316 31.4248C47.7316 31.2463 47.7203 31.079 47.6979 30.9228C47.6979 30.7442 47.6979 30.5992 47.6979 30.4876C47.6979 30.3538 47.6867 30.231 47.6643 30.1195C47.6643 30.0079 47.6643 29.9186 47.6643 29.8517V29.6509C47.6418 29.6732 47.6306 29.6955 47.6306 29.7178V29.8517C47.6306 29.9186 47.6194 30.0079 47.597 30.1195C47.597 30.231 47.597 30.3538 47.597 30.4876C47.597 30.5992 47.5858 30.7442 47.5633 30.9228C47.5633 31.079 47.5633 31.2463 47.5633 31.4248C47.5409 31.6033 47.5297 31.793 47.5297 31.9938C47.5297 32.1946 47.5185 32.4178 47.496 32.6632C47.4736 33.1095 47.4624 33.5893 47.4624 34.1025C47.4624 34.6157 47.4512 35.1624 47.4287 35.7425V36.6128C47.4287 36.7466 47.4287 36.8917 47.4287 37.0479C47.4287 37.1818 47.4175 37.3268 47.3951 37.483V41.0644C47.3951 41.1536 47.3951 41.2317 47.3951 41.2986C47.4175 41.3656 47.4287 41.4437 47.4287 41.5329V42.8048C47.4287 43.0949 47.4287 43.385 47.4287 43.6751C47.4512 43.9428 47.4624 44.1994 47.4624 44.4449C47.4624 44.6903 47.4624 44.9358 47.4624 45.1812C47.4848 45.4267 47.496 45.6721 47.496 45.9176C47.5185 46.0292 47.5297 46.1407 47.5297 46.2523C47.5297 46.3416 47.5297 46.442 47.5297 46.5535C47.5297 46.6651 47.5297 46.7655 47.5297 46.8548C47.5521 46.944 47.5633 47.0333 47.5633 47.1225C47.5633 47.3011 47.5633 47.4796 47.5633 47.6581C47.5858 47.8143 47.597 47.9593 47.597 48.0932C47.597 48.2271 47.597 48.3498 47.597 48.4614C47.6194 48.5506 47.6306 48.6287 47.6306 48.6957V48.863C47.6306 48.8853 47.6418 48.9076 47.6643 48.93V48.6957C47.6643 48.6287 47.6643 48.5506 47.6643 48.4614C47.6867 48.3498 47.6979 48.2271 47.6979 48.0932C47.6979 47.9593 47.6979 47.8143 47.6979 47.6581C47.7203 47.4796 47.7316 47.3011 47.7316 47.1225C47.754 47.0333 47.7652 46.944 47.7652 46.8548C47.7652 46.7655 47.7652 46.6651 47.7652 46.5535C47.7652 46.442 47.7652 46.3416 47.7652 46.2523C47.7876 46.1407 47.7989 46.0292 47.7989 45.9176C47.7989 45.6721 47.7989 45.4267 47.7989 45.1812C47.8213 44.9358 47.8325 44.6903 47.8325 44.4449C47.8325 44.1994 47.8325 43.9428 47.8325 43.6751C47.8549 43.385 47.8662 43.0949 47.8662 42.8048V41.9681C47.8662 41.7672 47.8774 41.6222 47.8998 41.5329V37.483ZM54.8315 46.5201C54.8091 46.587 54.7978 46.6986 54.7978 46.8548V47.4572C54.7978 47.5688 54.7866 47.6692 54.7642 47.7585C54.7642 47.8477 54.7642 47.937 54.7642 48.0262C54.7642 48.1155 54.753 48.1936 54.7305 48.2605C54.7305 48.3275 54.7305 48.3944 54.7305 48.4614V48.5618C54.7081 48.5841 54.6969 48.6176 54.6969 48.6622V48.8295C54.6745 48.8519 54.6632 48.8742 54.6632 48.8965V48.9634C54.6632 48.9857 54.652 49.0081 54.6296 49.0304C54.6296 49.0304 54.6296 49.0415 54.6296 49.0638C54.6296 49.0861 54.6184 49.1085 54.5959 49.1308H54.6296C54.6296 49.1308 54.6408 49.1085 54.6632 49.0638C54.6632 49.0638 54.6745 49.0415 54.6969 48.9969C54.7193 48.9746 54.7305 48.9523 54.7305 48.93C54.753 48.9076 54.7642 48.8853 54.7642 48.863C54.7866 48.8407 54.7978 48.8184 54.7978 48.7961C54.8203 48.7738 54.8315 48.7403 54.8315 48.6957C54.8764 48.651 54.8988 48.5952 54.8988 48.5283C54.9436 48.4391 54.9885 48.2829 55.0334 48.0597C55.0782 47.9258 55.1007 47.8366 55.1007 47.792C55.1231 47.7473 55.1343 47.7027 55.1343 47.6581C55.1343 47.5911 55.1455 47.5353 55.168 47.4907C55.168 47.4461 55.168 47.4015 55.168 47.3568C55.1904 47.2899 55.2016 47.2341 55.2016 47.1895C55.2241 47.1225 55.2353 47.0221 55.2353 46.8882C55.2577 46.7767 55.2689 46.6651 55.2689 46.5535C55.2689 46.442 55.2801 46.3304 55.3026 46.2188V44.8131C55.3026 44.7015 55.2914 44.5899 55.2689 44.4784C55.2689 44.3668 55.2577 44.2552 55.2353 44.1437C55.2353 44.0098 55.2241 43.9094 55.2016 43.8424C55.2016 43.7978 55.1904 43.7532 55.168 43.7085C55.168 43.6416 55.168 43.5858 55.168 43.5412C55.1455 43.4966 55.1343 43.4519 55.1343 43.4073C55.1343 43.3404 55.1231 43.2846 55.1007 43.2399C55.1007 43.1953 55.0895 43.1507 55.067 43.1061C55.067 43.0614 55.067 43.0168 55.067 42.9722C55.0222 42.8383 54.9997 42.7602 54.9997 42.7379C54.9773 42.6709 54.9436 42.5928 54.8988 42.5036C54.8988 42.4367 54.8764 42.3809 54.8315 42.3362C54.8315 42.2693 54.809 42.2135 54.7642 42.1689C54.7193 42.0796 54.6857 42.0127 54.6632 41.9681C54.6408 41.9457 54.6296 41.9234 54.6296 41.9011H54.5959C54.5959 41.9011 54.6072 41.9234 54.6296 41.9681C54.6296 41.9904 54.6296 42.0127 54.6296 42.035C54.652 42.035 54.6632 42.0462 54.6632 42.0685C54.6632 42.1131 54.6745 42.1577 54.6969 42.2024V42.3697C54.7193 42.4143 54.7305 42.4701 54.7305 42.5371C54.7305 42.6486 54.7418 42.7267 54.7642 42.7714V43.0057C54.7866 43.0949 54.7978 43.1842 54.7978 43.2734C54.7978 43.3627 54.7978 43.4631 54.7978 43.5747V43.8759C54.7978 43.9205 54.7978 43.9763 54.7978 44.0432C54.8203 44.0879 54.8315 44.1325 54.8315 44.1771V46.5201ZM53.4519 45.0474C53.4519 44.7573 53.4407 44.3445 53.4182 43.8089C53.3958 43.2734 53.3173 42.7379 53.1827 42.2024C53.0481 41.6668 52.835 41.2094 52.5434 40.8301C52.2742 40.4284 51.8704 40.2276 51.332 40.2276H50.1206C49.8739 40.2276 49.6608 40.3168 49.4813 40.4954C49.3018 40.6739 49.2121 40.8858 49.2121 41.1313V49.8337C49.2121 50.0791 49.3018 50.2911 49.4813 50.4696C49.6608 50.6258 49.8739 50.7151 50.1206 50.7374H51.332C51.8704 50.7374 52.2742 50.6035 52.5434 50.3357C52.835 50.0456 53.0481 49.7109 53.1827 49.3316C53.3173 48.9523 53.3958 48.5506 53.4182 48.1267C53.4407 47.7027 53.4519 47.3457 53.4519 47.0556V45.0474ZM53.4519 31.4918C53.4519 31.2017 53.4407 30.8558 53.4182 30.4542C53.3958 30.0302 53.3173 29.6286 53.1827 29.2492C53.0481 28.8699 52.835 28.5463 52.5434 28.2786C52.2742 27.9885 51.8704 27.8435 51.332 27.8435H50.1206C49.8739 27.8435 49.6608 27.9327 49.4813 28.1112C49.3018 28.2897 49.2121 28.5017 49.2121 28.7472V37.7508C49.2121 37.9962 49.3018 38.2082 49.4813 38.3867C49.6608 38.5652 49.8739 38.6545 50.1206 38.6545H51.332C51.8704 38.6545 52.2742 38.5206 52.5434 38.2528C52.835 37.9851 53.0481 37.6615 53.1827 37.2822C53.3173 36.8805 53.3958 36.4789 53.4182 36.0772C53.4407 35.6533 53.4519 35.2963 53.4519 35.0062V31.4918ZM54.9661 35.9099C55.0109 35.776 55.0334 35.6867 55.0334 35.6421C55.0782 35.5529 55.1007 35.4636 55.1007 35.3744C55.1231 35.3297 55.1343 35.2851 55.1343 35.2405C55.1343 35.1735 55.1455 35.1177 55.168 35.0731C55.168 35.0285 55.168 34.9839 55.168 34.9392C55.1904 34.8723 55.2016 34.8054 55.2016 34.7384C55.2241 34.6715 55.2353 34.5599 55.2353 34.4037C55.2577 34.2921 55.2689 34.1806 55.2689 34.069C55.2689 33.9574 55.2801 33.8459 55.3026 33.7343V32.9979C55.3026 32.7525 55.3026 32.5182 55.3026 32.2951C55.3026 32.0496 55.2914 31.8153 55.2689 31.5922C55.2465 31.5252 55.2353 31.4694 55.2353 31.4248C55.2353 31.3579 55.2241 31.3021 55.2016 31.2575C55.2016 31.1013 55.1904 30.9897 55.168 30.9228C55.1455 30.8112 55.1231 30.7108 55.1007 30.6215C55.1007 30.5323 55.0895 30.443 55.067 30.3538C55.0222 30.2199 54.9997 30.1306 54.9997 30.086C54.9549 29.9967 54.9324 29.9298 54.9324 29.8852C54.8876 29.7959 54.8539 29.729 54.8315 29.6843C54.8315 29.6174 54.809 29.5616 54.7642 29.517C54.7418 29.4501 54.7081 29.372 54.6632 29.2827L54.5959 29.2158V29.2492C54.5959 29.2715 54.5959 29.2827 54.5959 29.2827C54.6184 29.2827 54.6296 29.2939 54.6296 29.3162C54.652 29.3385 54.6632 29.372 54.6632 29.4166C54.6632 29.4612 54.6745 29.5058 54.6969 29.5505V29.7178C54.7193 29.7624 54.7305 29.8294 54.7305 29.9186C54.7305 29.9633 54.7305 30.0079 54.7305 30.0525C54.753 30.0748 54.7642 30.1083 54.7642 30.1529V30.3872C54.7866 30.4765 54.7978 30.5657 54.7978 30.655C54.7978 30.7442 54.7978 30.8447 54.7978 30.9562V31.2909C54.7978 31.3356 54.7978 31.3913 54.7978 31.4583C54.8203 31.5029 54.8315 31.5475 54.8315 31.5922V34.069C54.8091 34.1359 54.7978 34.2475 54.7978 34.4037V35.0396C54.7978 35.1512 54.7866 35.2516 54.7642 35.3409C54.7642 35.4301 54.7642 35.5194 54.7642 35.6086C54.7642 35.6979 54.753 35.7872 54.7305 35.8764C54.7305 35.9434 54.7305 36.0103 54.7305 36.0772C54.7305 36.1888 54.7193 36.2557 54.6969 36.2781V36.4789C54.6745 36.4789 54.6632 36.5012 54.6632 36.5458V36.6128C54.6632 36.6351 54.652 36.6574 54.6296 36.6797C54.6296 36.6797 54.6296 36.6909 54.6296 36.7132C54.6296 36.7355 54.6184 36.7578 54.5959 36.7801L54.6632 36.7132C54.6632 36.6909 54.6632 36.6797 54.6632 36.6797C54.6857 36.6574 54.6969 36.6351 54.6969 36.6128C54.7193 36.6128 54.7305 36.5904 54.7305 36.5458C54.753 36.5458 54.7642 36.5235 54.7642 36.4789C54.7866 36.4789 54.7978 36.4566 54.7978 36.4119C54.8203 36.3896 54.8315 36.3562 54.8315 36.3115C54.8764 36.2669 54.8988 36.2111 54.8988 36.1442C54.9436 36.0103 54.9661 35.9322 54.9661 35.9099Z" fill="#F4EDE8"/>
<path d="M69.3087 49.1977C69.3984 49.5771 69.4993 49.856 69.6115 50.0345C69.7237 50.213 69.8358 50.358 69.948 50.4696C70.0602 50.5812 70.1611 50.6816 70.2508 50.7708C70.3406 50.8601 70.4079 51.0051 70.4527 51.206H68.6693C68.5123 51.206 68.3665 51.1502 68.2319 51.0386C68.1197 50.927 68.0524 50.7931 68.03 50.637C68.0524 50.7931 68.0188 50.927 67.9291 51.0386C67.8393 51.1502 67.7272 51.206 67.5926 51.206H65.8092C65.7643 51.0051 65.7755 50.8601 65.8428 50.7708C65.9101 50.6816 65.9774 50.5923 66.0447 50.5031C66.112 50.3915 66.1681 50.2465 66.213 50.068C66.2578 49.8671 66.2466 49.5659 66.1793 49.1642V49.1308L65.439 45.3486C65.3942 45.1255 65.2708 44.9358 65.0689 44.7796C64.867 44.6011 64.6427 44.5118 64.3959 44.5118H62.0741C61.8274 44.5118 61.6031 44.6011 61.4012 44.7796C61.1993 44.9358 61.0759 45.1255 61.031 45.3486L60.3244 49.1308V49.1642C60.2571 49.5659 60.2347 49.8671 60.2571 50.068C60.302 50.2465 60.3581 50.3915 60.4254 50.5031C60.5151 50.5923 60.5824 50.6816 60.6272 50.7708C60.6945 50.8601 60.717 51.0051 60.6945 51.206H58.9112C58.7541 51.206 58.6307 51.1502 58.541 51.0386C58.4513 50.927 58.4176 50.7931 58.4401 50.637C58.4176 50.7931 58.3503 50.927 58.2382 51.0386C58.126 51.1502 57.9914 51.206 57.8344 51.206H56.051C56.0734 51.0051 56.1295 50.8601 56.2192 50.7708C56.309 50.6816 56.4099 50.5812 56.5221 50.4696C56.6342 50.358 56.7464 50.213 56.8586 50.0345C56.9707 49.856 57.0717 49.5771 57.1614 49.1977L58.6756 41.0644C58.7205 40.752 58.6868 40.4619 58.5747 40.1941C58.4625 39.9264 58.283 39.7144 58.0363 39.5582C58.3952 39.402 58.7205 39.3239 59.0121 39.3239L60.8291 29.7848C60.8964 29.4054 60.9077 29.1265 60.8628 28.948C60.8179 28.7472 60.7618 28.6021 60.6945 28.5129C60.6272 28.4013 60.5599 28.3009 60.4926 28.2116C60.4254 28.1224 60.4141 27.9773 60.459 27.7765H62.7135C63.05 27.8211 63.2182 28.0108 63.2182 28.3455C63.2182 28.1893 63.2631 28.0666 63.3528 27.9773C63.465 27.8658 63.5883 27.7988 63.7229 27.7765H66.0111C66.0559 27.9773 66.0447 28.1224 65.9774 28.2116C65.9326 28.3009 65.8765 28.4013 65.8092 28.5129C65.7419 28.6021 65.6858 28.7472 65.6409 28.948C65.5961 29.1265 65.6073 29.4054 65.6746 29.7848L67.458 39.3239C67.6374 39.3239 67.8057 39.3462 67.9627 39.3908C68.1197 39.4355 68.2768 39.4912 68.4338 39.5582C67.9403 39.8706 67.7272 40.3726 67.7945 41.0644L69.3087 49.1977ZM61.2329 37.2152C61.2778 37.0814 61.3002 36.9586 61.3002 36.8471C61.3227 36.7132 61.3451 36.5904 61.3675 36.4789C61.4797 35.9657 61.5694 35.4859 61.6367 35.0396C61.704 34.5711 61.7713 34.1471 61.8386 33.7678C61.8835 33.5893 61.9059 33.4107 61.9059 33.2322C61.9283 33.0537 61.9508 32.8752 61.9732 32.6967C61.9956 32.5405 62.0181 32.3955 62.0405 32.2616C62.0629 32.1277 62.0854 32.005 62.1078 31.8934C62.1302 31.7818 62.1414 31.6814 62.1414 31.5922C62.1414 31.4806 62.1527 31.3913 62.1751 31.3244V31.1905L62.1414 31.3244C62.119 31.3913 62.0966 31.4694 62.0741 31.5587C62.0517 31.648 62.0293 31.7484 62.0069 31.8599C61.962 31.9715 61.9283 32.1054 61.9059 32.2616C61.8835 32.3955 61.8498 32.5293 61.805 32.6632C61.7601 32.8417 61.7152 33.0203 61.6704 33.1988C61.6479 33.3773 61.6143 33.5558 61.5694 33.7343C61.4572 34.1136 61.3451 34.5264 61.2329 34.9727C61.1432 35.3967 61.0422 35.8653 60.9301 36.3785C60.9301 36.5124 60.9189 36.6351 60.8964 36.7466C60.874 36.8582 60.8404 36.9809 60.7955 37.1148C60.7731 37.2487 60.7506 37.3826 60.7282 37.5165C60.7058 37.628 60.6833 37.7508 60.6609 37.8846C60.5936 38.1301 60.5263 38.3867 60.459 38.6545C60.4141 38.9222 60.3693 39.19 60.3244 39.4578C60.2795 39.7032 60.2235 39.9598 60.1562 40.2276C60.1113 40.4954 60.0664 40.752 60.0216 40.9974C59.9991 41.0644 59.9879 41.1313 59.9879 41.1982C59.9879 41.2429 59.9767 41.2987 59.9543 41.3656C59.9094 41.5441 59.887 41.678 59.887 41.7672C59.8197 41.9904 59.7748 42.2358 59.7524 42.5036C59.7075 42.749 59.6626 42.9945 59.6178 43.2399C59.5729 43.4854 59.5393 43.7085 59.5168 43.9094C59.4495 44.4226 59.3822 44.8465 59.3149 45.1812C59.2701 45.3598 59.2364 45.5383 59.214 45.7168C59.1916 45.8953 59.1691 46.0738 59.1467 46.2523C59.1018 46.4085 59.0682 46.5647 59.0457 46.7209C59.0457 46.8548 59.0345 46.9775 59.0121 47.0891C58.9897 47.2006 58.9784 47.301 58.9784 47.3903C58.9784 47.4796 58.9672 47.5577 58.9448 47.6246C58.9448 47.6692 58.9336 47.7027 58.9112 47.725C58.9112 47.725 58.9112 47.7362 58.9112 47.7585V47.792C58.9336 47.792 58.9448 47.7808 58.9448 47.7585C58.9448 47.7139 58.956 47.6692 58.9784 47.6246C59.0009 47.58 59.0121 47.513 59.0121 47.4238C59.0345 47.3122 59.0682 47.2006 59.113 47.0891C59.1579 46.9775 59.1916 46.8548 59.214 46.7209C59.2589 46.587 59.3037 46.442 59.3486 46.2858C59.3934 46.1296 59.4271 45.9622 59.4495 45.7837C59.4944 45.6052 59.528 45.4267 59.5505 45.2482C59.5953 45.0697 59.6402 44.88 59.6851 44.6792C59.7524 44.456 59.8085 44.2329 59.8533 44.0098C59.8982 43.7866 59.9431 43.5523 59.9879 43.3069C60.0552 43.0614 60.1225 42.816 60.1898 42.5705C60.2122 42.459 60.2347 42.3474 60.2571 42.2358C60.2795 42.1019 60.302 41.9792 60.3244 41.8677L60.4254 41.466C60.4478 41.3991 60.459 41.3321 60.459 41.2652C60.459 41.1982 60.4702 41.1313 60.4926 41.0644C60.5375 40.8189 60.5936 40.5735 60.6609 40.328C60.7282 40.0602 60.7843 39.7925 60.8291 39.5247C60.874 39.2793 60.9189 39.0226 60.9637 38.7549C61.0086 38.4871 61.0535 38.2305 61.0983 37.9851C61.1208 37.8512 61.1432 37.7173 61.1656 37.5834C61.1881 37.4495 61.2105 37.3268 61.2329 37.2152ZM64.0931 42.9387C64.3398 42.9164 64.5305 42.8271 64.6651 42.6709C64.8221 42.4924 64.8782 42.2805 64.8334 42.035L64.6315 41.0644C64.5417 40.752 64.3847 40.4619 64.1604 40.1941C63.9585 39.9264 63.7117 39.7144 63.4201 39.5582C63.6893 39.402 63.9809 39.3239 64.295 39.3239L63.2182 33.6004L62.1414 39.3239C62.4331 39.3239 62.7359 39.402 63.05 39.5582C62.7359 39.7144 62.4667 39.9264 62.2424 40.1941C62.0405 40.4619 61.9059 40.752 61.8386 41.0644L61.6704 42.035C61.6255 42.2805 61.6704 42.4924 61.805 42.6709C61.9396 42.8271 62.119 42.9164 62.3433 42.9387H64.0931ZM67.4916 47.6246C67.4916 47.6692 67.4916 47.7027 67.4916 47.725C67.5141 47.725 67.5253 47.7362 67.5253 47.7585V47.6246C67.5028 47.5577 67.4916 47.4796 67.4916 47.3903C67.4916 47.301 67.4804 47.2006 67.458 47.0891C67.4355 46.9775 67.4131 46.8548 67.3907 46.7209C67.3907 46.5647 67.3682 46.4085 67.3234 46.2523C67.3009 46.0738 67.2785 45.8953 67.2561 45.7168C67.2336 45.5383 67.2 45.3598 67.1551 45.1812C67.0878 44.8465 67.0205 44.4226 66.9532 43.9094C66.9084 43.7085 66.8635 43.4854 66.8186 43.2399C66.7962 42.9945 66.7626 42.749 66.7177 42.5036C66.6728 42.3697 66.6392 42.247 66.6167 42.1354C66.6167 42.0238 66.5943 41.9011 66.5494 41.7672C66.5494 41.678 66.527 41.5441 66.4822 41.3656C66.4822 41.2987 66.4709 41.2429 66.4485 41.1982C66.4485 41.1313 66.4485 41.0644 66.4485 40.9974C66.4036 40.752 66.3476 40.4954 66.2803 40.2276C66.2354 39.9598 66.1905 39.7032 66.1457 39.4578C66.1008 39.19 66.0447 38.9222 65.9774 38.6545C65.9326 38.3867 65.8765 38.1301 65.8092 37.8846C65.7867 37.7508 65.7643 37.628 65.7419 37.5165C65.7194 37.3826 65.697 37.2487 65.6746 37.1148C65.6297 36.9809 65.5961 36.8582 65.5736 36.7466C65.5512 36.6351 65.5288 36.5124 65.5063 36.3785C65.3942 35.8653 65.282 35.3967 65.1698 34.9727C65.0801 34.5264 65.0016 34.1136 64.9343 33.7343C64.8894 33.5558 64.8446 33.3773 64.7997 33.1988C64.7548 33.0203 64.71 32.8417 64.6651 32.6632C64.6202 32.5293 64.5754 32.3955 64.5305 32.2616C64.5081 32.1054 64.4744 31.9715 64.4296 31.8599C64.4071 31.7484 64.3847 31.648 64.3623 31.5587C64.3398 31.4694 64.3174 31.3913 64.295 31.3244L64.2613 31.1905V31.3244C64.2838 31.436 64.3174 31.6256 64.3623 31.8934C64.3623 32.005 64.3735 32.1277 64.3959 32.2616C64.4184 32.3955 64.4408 32.5405 64.4632 32.6967C64.4856 32.8752 64.5081 33.0537 64.5305 33.2322C64.5529 33.4107 64.5866 33.5893 64.6315 33.7678C64.6988 34.1471 64.7661 34.5711 64.8334 35.0396C64.9007 35.4859 64.9792 35.9657 65.0689 36.4789C65.0913 36.5904 65.1025 36.7132 65.1025 36.8471C65.125 36.9586 65.1586 37.0814 65.2035 37.2152C65.2259 37.3268 65.2484 37.4495 65.2708 37.5834C65.2932 37.7173 65.3157 37.8512 65.3381 37.9851C65.383 38.2305 65.4278 38.4871 65.4727 38.7549C65.54 39.0226 65.5961 39.2793 65.6409 39.5247C65.6858 39.7925 65.7419 40.0602 65.8092 40.328C65.8765 40.5735 65.9326 40.8189 65.9774 41.0644C65.9999 41.1313 66.0111 41.1982 66.0111 41.2652C66.0111 41.3321 66.0223 41.3991 66.0447 41.466L66.1457 41.8677C66.1681 41.9792 66.1905 42.1019 66.213 42.2358C66.2354 42.3474 66.2578 42.459 66.2803 42.5705C66.3476 42.816 66.4036 43.0614 66.4485 43.3069C66.4934 43.5523 66.5382 43.7866 66.5831 44.0098C66.628 44.2329 66.6728 44.456 66.7177 44.6792C66.785 44.88 66.8411 45.0697 66.8859 45.2482C66.9308 45.4267 66.9757 45.6052 67.0205 45.7837C67.0654 45.9622 67.1103 46.1296 67.1551 46.2858C67.2224 46.5982 67.2897 46.8659 67.357 47.0891C67.4019 47.2006 67.4243 47.3122 67.4243 47.4238C67.4468 47.513 67.4692 47.58 67.4916 47.6246Z" fill="#F4EDE8"/>
<path d="M83.4267 52.6117C83.6735 52.6563 83.8417 52.7344 83.9315 52.846C84.0436 52.9576 84.1222 53.0692 84.167 53.1807C84.2119 53.3146 84.2343 53.4596 84.2343 53.6158C83.5165 53.6158 82.8435 53.5266 82.2154 53.3481C81.5873 53.1696 81.0265 52.8795 80.5329 52.4778C80.0618 52.0762 79.6805 51.5518 79.3889 50.9047C79.1197 50.2576 78.9851 49.4655 78.9851 48.5283V43.9428C78.9851 43.6528 78.9739 43.2957 78.9514 42.8718C78.929 42.4478 78.8505 42.0462 78.7159 41.6668C78.5813 41.2875 78.3682 40.9639 78.0766 40.6962C77.8074 40.4061 77.4036 40.2611 76.8652 40.2611H75.4856C75.2837 40.3057 75.1042 40.4173 74.9472 40.5958C74.8126 40.752 74.7453 40.9416 74.7453 41.1648V49.1642C74.7453 49.5659 74.779 49.8671 74.8463 50.068C74.936 50.2465 75.0257 50.3915 75.1155 50.5031C75.2052 50.5923 75.2837 50.6816 75.351 50.7708C75.4407 50.8601 75.4856 51.0051 75.4856 51.206H73.7022C73.5676 51.206 73.4442 51.1502 73.3321 51.0386C73.2199 50.927 73.1638 50.8043 73.1638 50.6704C73.1638 50.8043 73.1077 50.927 72.9956 51.0386C72.9058 51.1502 72.7825 51.206 72.6254 51.206H70.8757C70.8757 51.0051 70.9093 50.8601 70.9766 50.7708C71.0664 50.6816 71.1561 50.5923 71.2458 50.5031C71.3356 50.3915 71.4141 50.2465 71.4814 50.068C71.5711 49.8894 71.616 49.6105 71.616 49.2312V41.0644C71.5487 40.3726 71.2346 39.8706 70.6738 39.5582C70.9206 39.402 71.2346 39.3239 71.616 39.3239V29.7513C71.616 29.372 71.5711 29.093 71.4814 28.9145C71.4141 28.736 71.3356 28.6021 71.2458 28.5129C71.1561 28.4013 71.0664 28.3009 70.9766 28.2116C70.9093 28.1224 70.8757 27.9773 70.8757 27.7765H72.6591C72.7937 27.7765 72.9171 27.8323 73.0292 27.9439C73.1414 28.0331 73.1975 28.1559 73.1975 28.312C73.1975 27.955 73.3769 27.7765 73.7359 27.7765H76.8989C77.6167 27.7765 78.2897 27.9104 78.9178 28.1782C79.5459 28.4459 80.0955 28.8141 80.5666 29.2827C81.0377 29.729 81.4078 30.2645 81.677 30.8893C81.9462 31.5141 82.092 32.1723 82.1144 32.8641V35.0396C82.1144 35.9768 81.8901 36.8359 81.4415 37.6169C80.9928 38.3979 80.3871 39.0226 79.6244 39.4912C80.3871 39.9375 80.9928 40.5623 81.4415 41.3656C81.8901 42.1466 82.1144 43.0057 82.1144 43.9428V48.3944C82.1144 48.863 82.1144 49.3428 82.1144 49.8337C82.1369 50.3022 82.1929 50.7374 82.2827 51.139C82.3724 51.5183 82.507 51.8419 82.6865 52.1097C82.8659 52.3774 83.1127 52.5448 83.4267 52.6117ZM80.3647 34.4706C80.3423 34.5153 80.331 34.5711 80.331 34.638V35.4078C80.3086 35.4971 80.2974 35.5863 80.2974 35.6756C80.2974 35.7425 80.2974 35.8095 80.2974 35.8764C80.2974 35.921 80.2862 35.9545 80.2637 35.9768C80.2637 35.9991 80.2637 36.0326 80.2637 36.0772V36.2781C80.2413 36.3227 80.2301 36.3785 80.2301 36.4454C80.2301 36.49 80.2189 36.5347 80.1964 36.5793C80.1964 36.6239 80.1852 36.6574 80.1628 36.6797V36.7466L80.1291 36.8136C80.1291 36.8136 80.1516 36.8024 80.1964 36.7801V36.7466L80.2301 36.7132C80.2525 36.6909 80.2637 36.6797 80.2637 36.6797C80.2637 36.6574 80.275 36.6351 80.2974 36.6128C80.3198 36.5681 80.3423 36.5235 80.3647 36.4789C80.3871 36.4119 80.4096 36.3562 80.432 36.3115C80.4544 36.2669 80.4656 36.2446 80.4656 36.2446C80.4656 36.2223 80.4769 36.1888 80.4993 36.1442C80.5217 36.0995 80.5329 36.0661 80.5329 36.0438C80.5329 35.9991 80.5442 35.9545 80.5666 35.9099C80.589 35.8653 80.6002 35.8318 80.6002 35.8095C80.6002 35.7872 80.6115 35.7537 80.6339 35.7091C80.6339 35.6644 80.6339 35.631 80.6339 35.6086C80.6563 35.564 80.6675 35.5194 80.6675 35.4748C80.69 35.3855 80.7012 35.2963 80.7012 35.207C80.7236 35.1177 80.746 35.0285 80.7685 34.9392C80.7909 34.8723 80.8021 34.7719 80.8021 34.638C80.8021 34.5934 80.8021 34.5487 80.8021 34.5041C80.8246 34.4595 80.8358 34.4149 80.8358 34.3702V33.1988C80.8358 33.0649 80.8246 32.9645 80.8021 32.8975V32.7636C80.8021 32.719 80.7909 32.6967 80.7685 32.6967C80.7685 32.6744 80.7685 32.6409 80.7685 32.5963C80.7685 32.4847 80.746 32.3174 80.7012 32.0942C80.6787 32.0496 80.6675 32.005 80.6675 31.9603C80.6675 31.9157 80.6563 31.8711 80.6339 31.8265C80.6339 31.8042 80.6227 31.793 80.6002 31.793C80.6002 31.7707 80.6002 31.7484 80.6002 31.7261C80.6002 31.7037 80.589 31.6926 80.5666 31.6926C80.5666 31.6703 80.5666 31.648 80.5666 31.6256C80.5442 31.581 80.5329 31.5475 80.5329 31.5252C80.5329 31.5029 80.5217 31.4694 80.4993 31.4248C80.4769 31.3802 80.4656 31.3467 80.4656 31.3244C80.4656 31.3021 80.4544 31.2686 80.432 31.224C80.4096 31.2017 80.3983 31.1794 80.3983 31.1571C80.3983 31.1347 80.3871 31.1124 80.3647 31.0901C80.3198 31.0009 80.2974 30.9562 80.2974 30.9562C80.275 30.9339 80.2637 30.9228 80.2637 30.9228C80.2637 30.9004 80.2525 30.8781 80.2301 30.8558C80.2077 30.8335 80.1964 30.8112 80.1964 30.7889C80.174 30.7666 80.1628 30.7442 80.1628 30.7219H80.1291C80.1291 30.7219 80.1404 30.7442 80.1628 30.7889V30.8558C80.1852 30.8781 80.1964 30.9228 80.1964 30.9897C80.1964 31.012 80.1964 31.0343 80.1964 31.0566C80.2189 31.0566 80.2301 31.079 80.2301 31.1236C80.2301 31.1905 80.2413 31.2463 80.2637 31.2909V31.4583C80.2637 31.5029 80.2637 31.5364 80.2637 31.5587C80.2862 31.581 80.2974 31.6145 80.2974 31.6591C80.2974 31.8599 80.3086 32.0161 80.331 32.1277V32.6632C80.3535 32.7748 80.3647 32.9533 80.3647 33.1988V34.4706ZM73.433 37.9181C73.433 37.8066 73.4218 37.6838 73.3994 37.5499C73.3994 37.4161 73.3994 37.2822 73.3994 37.1483V36.4119C73.3769 35.921 73.3657 35.4524 73.3657 35.0062C73.3657 34.5599 73.3545 34.1359 73.3321 33.7343C73.3096 33.5558 73.2984 33.3773 73.2984 33.1988C73.2984 33.0203 73.2872 32.8529 73.2648 32.6967C73.2648 32.5182 73.2536 32.362 73.2311 32.2281C73.2311 32.0942 73.2311 31.9715 73.2311 31.8599C73.2311 31.7484 73.2199 31.648 73.1975 31.5587C73.1975 31.4694 73.1975 31.3913 73.1975 31.3244V31.1571C73.175 31.1571 73.1638 31.1682 73.1638 31.1905V31.3244C73.1638 31.3913 73.1526 31.4694 73.1302 31.5587C73.1302 31.648 73.1302 31.7484 73.1302 31.8599C73.1302 31.9715 73.119 32.0942 73.0965 32.2281C73.0965 32.362 73.0965 32.5182 73.0965 32.6967C73.0741 32.8529 73.0629 33.0203 73.0629 33.1988C73.0629 33.3773 73.0517 33.5558 73.0292 33.7343C73.0068 34.1359 72.9956 34.5599 72.9956 35.0062C72.9956 35.4524 72.9844 35.921 72.9619 36.4119V37.1483C72.9619 37.2822 72.9507 37.4161 72.9283 37.5499C72.9283 37.6838 72.9283 37.8066 72.9283 37.9181V41.0309C72.9283 41.2094 72.9395 41.3433 72.9619 41.4325V42.5371C72.9619 42.7825 72.9619 43.028 72.9619 43.2734C72.9844 43.4966 72.9956 43.7197 72.9956 43.9428C72.9956 44.1883 72.9956 44.4114 72.9956 44.6122C73.018 44.8131 73.0292 45.0139 73.0292 45.2147C73.0517 45.4155 73.0629 45.6052 73.0629 45.7837C73.0629 45.9399 73.0741 46.1073 73.0965 46.2858C73.0965 46.442 73.0965 46.587 73.0965 46.7209C73.119 46.8548 73.1302 46.9775 73.1302 47.0891C73.1302 47.2006 73.1302 47.3122 73.1302 47.4238C73.1526 47.513 73.1638 47.58 73.1638 47.6246V47.792C73.1638 47.8143 73.175 47.8254 73.1975 47.8254V47.6246C73.1975 47.58 73.1975 47.513 73.1975 47.4238C73.2199 47.3122 73.2311 47.2006 73.2311 47.0891C73.2311 46.9775 73.2311 46.8548 73.2311 46.7209C73.2536 46.587 73.2648 46.442 73.2648 46.2858C73.2872 46.1073 73.2984 45.9399 73.2984 45.7837C73.2984 45.6052 73.3096 45.4155 73.3321 45.2147C73.3321 45.0139 73.3321 44.8131 73.3321 44.6122C73.3545 44.4114 73.3657 44.1883 73.3657 43.9428C73.3657 43.7197 73.3657 43.4966 73.3657 43.2734C73.3882 43.028 73.3994 42.7825 73.3994 42.5371V41.8007C73.3994 41.6222 73.4106 41.4995 73.433 41.4325V37.9181ZM78.9851 32.9979C78.9851 32.7079 78.9739 32.3508 78.9514 31.9269C78.929 31.5029 78.8505 31.1013 78.7159 30.7219C78.5813 30.3426 78.3682 30.0191 78.0766 29.7513C77.8074 29.4612 77.4036 29.3162 76.8652 29.3162H75.6538C75.4071 29.3385 75.194 29.4389 75.0145 29.6174C74.8351 29.7959 74.7453 30.0079 74.7453 30.2533V37.7842C74.7453 38.0297 74.8351 38.2417 75.0145 38.4202C75.194 38.5987 75.4071 38.6879 75.6538 38.6879H76.8652C77.4036 38.6879 77.8074 38.5541 78.0766 38.2863C78.3682 38.0185 78.5813 37.695 78.7159 37.3156C78.8505 36.914 78.929 36.5124 78.9514 36.1107C78.9739 35.6867 78.9851 35.3297 78.9851 35.0396V32.9979ZM81.2396 51.3398C81.2396 51.3398 81.2283 51.3287 81.2059 51.3064L81.1723 51.2729C81.1498 51.2283 81.1274 51.1836 81.105 51.139C81.105 51.0944 81.0825 51.0498 81.0377 51.0051C81.0152 50.9382 80.9928 50.8713 80.9704 50.8043C80.9479 50.7151 80.9255 50.6146 80.9031 50.5031C80.8582 50.2799 80.8358 50.068 80.8358 49.8671C80.8133 49.7556 80.8021 49.644 80.8021 49.5324C80.8021 49.3985 80.8021 49.2535 80.8021 49.0973V47.3234C80.8021 47.1672 80.8021 47.011 80.8021 46.8548C80.8021 46.6986 80.8133 46.5312 80.8358 46.3527C80.8358 46.1965 80.8358 46.0403 80.8358 45.8841C80.8358 45.7279 80.8246 45.5717 80.8021 45.4155V44.9469C80.8021 44.7238 80.7909 44.5676 80.7685 44.4784C80.7685 44.3222 80.7573 44.1771 80.7348 44.0432C80.7348 43.887 80.7236 43.742 80.7012 43.6081C80.6563 43.2957 80.6115 43.028 80.5666 42.8048C80.5442 42.6933 80.5217 42.5928 80.4993 42.5036C80.4769 42.392 80.4432 42.2805 80.3983 42.1689C80.3535 42.0573 80.3198 41.9681 80.2974 41.9011C80.275 41.8342 80.2413 41.7672 80.1964 41.7003C80.1516 41.6334 80.1179 41.5776 80.0955 41.5329C80.0731 41.4883 80.0506 41.4437 80.0282 41.3991C80.0058 41.3991 79.9833 41.3879 79.9609 41.3656C79.9385 41.3656 79.9273 41.3544 79.9273 41.3321L79.9609 41.3656C79.9609 41.3879 79.9721 41.4102 79.9946 41.4325C79.9946 41.4548 79.9946 41.4772 79.9946 41.4995C80.017 41.4995 80.0282 41.5218 80.0282 41.5664C80.0506 41.5887 80.0618 41.611 80.0618 41.6334C80.0618 41.6557 80.0731 41.6891 80.0955 41.7338C80.1179 41.823 80.1516 41.9792 80.1964 42.2024C80.2189 42.3139 80.2301 42.4255 80.2301 42.5371C80.2525 42.6486 80.275 42.7602 80.2974 42.8718C80.2974 42.9833 80.2974 43.1061 80.2974 43.2399C80.3198 43.3515 80.331 43.4854 80.331 43.6416V47.792C80.331 47.8812 80.331 47.9593 80.331 48.0262C80.3535 48.0932 80.3647 48.1713 80.3647 48.2605C80.3647 48.4167 80.3647 48.5729 80.3647 48.7291C80.3871 48.863 80.4096 48.9969 80.432 49.1308C80.4544 49.2647 80.4656 49.3985 80.4656 49.5324C80.4881 49.6663 80.5105 49.789 80.5329 49.9006C80.5778 50.0345 80.6115 50.1572 80.6339 50.2688C80.6563 50.358 80.69 50.4584 80.7348 50.57C80.7797 50.6816 80.8133 50.7708 80.8358 50.8378C80.8582 50.9047 80.8919 50.9717 80.9367 51.0386L81.004 51.1055C81.0265 51.1279 81.0377 51.1502 81.0377 51.1725C81.0377 51.1725 81.0489 51.1836 81.0713 51.206L81.2059 51.3398H81.2396Z" fill="#F4EDE8"/>
<path d="M93.5162 35.0396C93.5162 35.9768 93.2918 36.8359 92.8432 37.6169C92.3945 38.3979 91.7888 39.0226 91.0261 39.4912C91.7888 39.9375 92.3945 40.5623 92.8432 41.3656C93.2918 42.1466 93.5162 43.0057 93.5162 43.9428V46.1184C93.4937 46.8325 93.3479 47.5019 93.0787 48.1267C92.8095 48.7291 92.4394 49.2647 91.9683 49.7332C91.4972 50.1795 90.9476 50.5365 90.3195 50.8043C89.6914 51.0721 89.0184 51.206 88.3006 51.206H85.1039C84.9693 51.206 84.846 51.1502 84.7338 51.0386C84.6216 50.927 84.5655 50.8043 84.5655 50.6704C84.5655 50.8043 84.5095 50.927 84.3973 51.0386C84.3076 51.1502 84.1842 51.206 84.0272 51.206H82.2774C82.2774 51.0051 82.3111 50.8601 82.3784 50.7708C82.4681 50.6816 82.5578 50.5923 82.6476 50.5031C82.7373 50.3915 82.8158 50.2465 82.8831 50.068C82.9728 49.8894 83.0177 49.6105 83.0177 49.2312V41.0644C82.9504 40.3726 82.6363 39.8706 82.0755 39.5582C82.3223 39.402 82.6363 39.3239 83.0177 39.3239V29.7513C83.0177 29.372 82.9728 29.093 82.8831 28.9145C82.8158 28.736 82.7373 28.6021 82.6476 28.5129C82.5578 28.4013 82.4681 28.3009 82.3784 28.2116C82.3111 28.1224 82.2774 27.9773 82.2774 27.7765H84.0608C84.1954 27.7765 84.3188 27.8323 84.4309 27.9439C84.5431 28.0331 84.5992 28.1559 84.5992 28.312C84.5992 27.955 84.7787 27.7765 85.1376 27.7765H88.3006C89.0184 27.7765 89.6914 27.9104 90.3195 28.1782C90.9476 28.4459 91.4972 28.8141 91.9683 29.2827C92.4394 29.729 92.8095 30.2645 93.0787 30.8893C93.3479 31.5141 93.4937 32.1723 93.5162 32.8641V35.0396ZM84.8347 37.9181C84.8347 37.8066 84.8235 37.6838 84.8011 37.5499C84.8011 37.4161 84.8011 37.2822 84.8011 37.1483V36.4119C84.7787 35.921 84.7674 35.4524 84.7674 35.0062C84.7674 34.5599 84.7562 34.1359 84.7338 33.7343C84.7114 33.5558 84.7001 33.3773 84.7001 33.1988C84.7001 33.0203 84.6889 32.8529 84.6665 32.6967C84.6665 32.5182 84.6553 32.362 84.6328 32.2281C84.6328 32.0942 84.6328 31.9715 84.6328 31.8599C84.6328 31.7484 84.6216 31.648 84.5992 31.5587C84.5992 31.4694 84.5992 31.3913 84.5992 31.3244V31.1571C84.5768 31.1571 84.5655 31.1682 84.5655 31.1905V31.3244C84.5655 31.3913 84.5543 31.4694 84.5319 31.5587C84.5319 31.648 84.5319 31.7484 84.5319 31.8599C84.5319 31.9715 84.5207 32.0942 84.4982 32.2281C84.4982 32.362 84.4982 32.5182 84.4982 32.6967C84.4758 32.8529 84.4646 33.0203 84.4646 33.1988C84.4646 33.3773 84.4534 33.5558 84.4309 33.7343C84.4085 34.1359 84.3973 34.5599 84.3973 35.0062C84.3973 35.4524 84.3861 35.921 84.3637 36.4119V37.1483C84.3637 37.2822 84.3524 37.4161 84.33 37.5499C84.33 37.6838 84.33 37.8066 84.33 37.9181V41.0309C84.33 41.2094 84.3412 41.3433 84.3637 41.4325V42.5371C84.3637 42.7825 84.3637 43.028 84.3637 43.2734C84.3861 43.4966 84.3973 43.7197 84.3973 43.9428C84.3973 44.1883 84.3973 44.4114 84.3973 44.6122C84.4197 44.8131 84.4309 45.0139 84.4309 45.2147C84.4534 45.4155 84.4646 45.6052 84.4646 45.7837C84.4646 45.9399 84.4758 46.1073 84.4982 46.2858C84.4982 46.442 84.4982 46.587 84.4982 46.7209C84.5207 46.8548 84.5319 46.9775 84.5319 47.0891C84.5319 47.2006 84.5319 47.3122 84.5319 47.4238C84.5543 47.513 84.5655 47.58 84.5655 47.6246V47.792C84.5655 47.8143 84.5768 47.8254 84.5992 47.8254V47.6246C84.5992 47.58 84.5992 47.513 84.5992 47.4238C84.6216 47.3122 84.6328 47.2006 84.6328 47.0891C84.6328 46.9775 84.6328 46.8548 84.6328 46.7209C84.6553 46.587 84.6665 46.442 84.6665 46.2858C84.6889 46.1073 84.7001 45.9399 84.7001 45.7837C84.7001 45.6052 84.7114 45.4155 84.7338 45.2147C84.7338 45.0139 84.7338 44.8131 84.7338 44.6122C84.7562 44.4114 84.7674 44.1883 84.7674 43.9428C84.7674 43.7197 84.7674 43.4966 84.7674 43.2734C84.7899 43.028 84.8011 42.7825 84.8011 42.5371V41.8007C84.8011 41.6222 84.8123 41.4995 84.8347 41.4325V37.9181ZM91.7664 45.6833C91.744 45.7279 91.7328 45.7837 91.7328 45.8507V46.6205C91.7103 46.7097 91.6991 46.799 91.6991 46.8882C91.6991 46.9552 91.6991 47.0221 91.6991 47.0891C91.6991 47.1337 91.6879 47.1672 91.6655 47.1895C91.6655 47.2118 91.6655 47.2453 91.6655 47.2899V47.4907C91.643 47.5353 91.6318 47.5911 91.6318 47.6581C91.6318 47.7027 91.6206 47.7473 91.5982 47.792C91.5982 47.8366 91.587 47.8701 91.5645 47.8924V47.9593L91.5309 48.0262C91.5309 48.0262 91.5533 48.0151 91.5982 47.9928V47.9593L91.6318 47.9258C91.6542 47.9035 91.6655 47.8924 91.6655 47.8924C91.6655 47.8701 91.6767 47.8477 91.6991 47.8254C91.7215 47.7808 91.744 47.7362 91.7664 47.6915C91.7888 47.6246 91.8113 47.5688 91.8337 47.5242C91.8561 47.4796 91.8674 47.4572 91.8674 47.4572C91.8674 47.4349 91.8786 47.4015 91.901 47.3568C91.9234 47.3122 91.9347 47.2787 91.9347 47.2564C91.9347 47.2341 91.9459 47.2006 91.9683 47.156C91.9907 47.1114 92.002 47.0779 92.002 47.0556C92.002 47.011 92.0132 46.9663 92.0356 46.9217C92.0356 46.8771 92.0356 46.8436 92.0356 46.8213C92.058 46.7767 92.0693 46.732 92.0693 46.6874C92.0917 46.5982 92.1029 46.5089 92.1029 46.4197C92.1253 46.3304 92.1478 46.2411 92.1702 46.1519C92.1926 46.085 92.2038 45.9845 92.2038 45.8507C92.2038 45.806 92.2038 45.7614 92.2038 45.7168C92.2263 45.6721 92.2375 45.6275 92.2375 45.5829V44.4114C92.2375 44.2775 92.2263 44.1771 92.2038 44.1102V43.9763C92.2038 43.9317 92.1926 43.9094 92.1702 43.9094C92.1702 43.887 92.1702 43.8647 92.1702 43.8424C92.1702 43.7309 92.159 43.6416 92.1366 43.5747C92.1366 43.4854 92.1253 43.3961 92.1029 43.3069C92.0805 43.2623 92.0693 43.2176 92.0693 43.173C92.0693 43.1284 92.058 43.0838 92.0356 43.0391C92.0356 43.0168 92.0244 43.0057 92.002 43.0057C92.002 42.9833 92.002 42.961 92.002 42.9387C92.002 42.9164 91.9907 42.9052 91.9683 42.9052C91.9683 42.8829 91.9683 42.8606 91.9683 42.8383C91.9459 42.7937 91.9347 42.7602 91.9347 42.7379C91.9347 42.7156 91.9234 42.6821 91.901 42.6375C91.8786 42.5928 91.8674 42.5594 91.8674 42.5371C91.8674 42.5147 91.8561 42.4813 91.8337 42.4367C91.8113 42.4143 91.8001 42.392 91.8001 42.3697C91.8001 42.3474 91.7888 42.3251 91.7664 42.3028C91.7215 42.2135 91.6991 42.1689 91.6991 42.1689C91.6767 42.1466 91.6655 42.1354 91.6655 42.1354C91.6655 42.1131 91.6542 42.0908 91.6318 42.0685C91.6094 42.0462 91.5982 42.0238 91.5982 42.0015L91.5309 41.9346C91.5309 41.9346 91.5421 41.9569 91.5645 42.0015V42.0685C91.587 42.0908 91.5982 42.1354 91.5982 42.2024C91.5982 42.2247 91.5982 42.247 91.5982 42.2693C91.6206 42.2693 91.6318 42.2916 91.6318 42.3362C91.6318 42.4032 91.643 42.459 91.6655 42.5036V42.6709C91.6655 42.7156 91.6655 42.749 91.6655 42.7714C91.6879 42.7937 91.6991 42.8271 91.6991 42.8718C91.6991 43.0726 91.7103 43.2288 91.7328 43.3404V43.8759C91.7552 43.9875 91.7664 44.166 91.7664 44.4114V45.6833ZM90.3868 43.9428C90.3868 43.6528 90.3756 43.2957 90.3532 42.8718C90.3307 42.4478 90.2522 42.0462 90.1176 41.6668C89.983 41.2875 89.7699 40.9639 89.4783 40.6962C89.2091 40.4061 88.8053 40.2611 88.2669 40.2611H87.0556C86.8088 40.2834 86.5957 40.3838 86.4162 40.5623C86.2368 40.7408 86.147 40.9528 86.147 41.1982V48.7291C86.147 48.9746 86.2368 49.1866 86.4162 49.3651C86.5957 49.5436 86.8088 49.6328 87.0556 49.6328H88.2669C88.8053 49.6328 89.2091 49.499 89.4783 49.2312C89.7699 48.9634 89.983 48.6399 90.1176 48.2605C90.2522 47.8589 90.3307 47.4572 90.3532 47.0556C90.3756 46.6316 90.3868 46.2746 90.3868 45.9845V43.9428ZM90.3868 32.9979C90.3868 32.7079 90.3756 32.3508 90.3532 31.9269C90.3307 31.5029 90.2522 31.1013 90.1176 30.7219C89.983 30.3426 89.7699 30.0191 89.4783 29.7513C89.2091 29.4612 88.8053 29.3162 88.2669 29.3162H87.0556C86.8088 29.3385 86.5957 29.4389 86.4162 29.6174C86.2368 29.7959 86.147 30.0079 86.147 30.2533V37.7842C86.147 38.0297 86.2368 38.2417 86.4162 38.4202C86.5957 38.5987 86.8088 38.6879 87.0556 38.6879H88.2669C88.8053 38.6879 89.2091 38.5541 89.4783 38.2863C89.7699 38.0185 89.983 37.695 90.1176 37.3156C90.2522 36.914 90.3307 36.5124 90.3532 36.1107C90.3756 35.6867 90.3868 35.3297 90.3868 35.0396V32.9979ZM91.8337 36.3115C91.8561 36.2669 91.8674 36.2446 91.8674 36.2446C91.8674 36.2223 91.8786 36.1888 91.901 36.1442C91.9234 36.0995 91.9347 36.0661 91.9347 36.0438C91.9347 35.9991 91.9459 35.9545 91.9683 35.9099C91.9907 35.8653 92.002 35.8318 92.002 35.8095C92.002 35.7872 92.0132 35.7537 92.0356 35.7091C92.0356 35.6644 92.0356 35.631 92.0356 35.6086C92.058 35.564 92.0693 35.5194 92.0693 35.4748C92.0917 35.3855 92.1029 35.2963 92.1029 35.207C92.1253 35.1177 92.1478 35.0285 92.1702 34.9392C92.1926 34.8723 92.2038 34.7719 92.2038 34.638C92.2038 34.5934 92.2038 34.5487 92.2038 34.5041C92.2263 34.4595 92.2375 34.4149 92.2375 34.3702V33.1988C92.2375 33.0649 92.2263 32.9645 92.2038 32.8975V32.7636C92.2038 32.719 92.1926 32.6967 92.1702 32.6967C92.1702 32.6744 92.1702 32.6409 92.1702 32.5963C92.1702 32.4847 92.1478 32.3174 92.1029 32.0942C92.0805 32.0496 92.0693 32.005 92.0693 31.9603C92.0693 31.9157 92.058 31.8711 92.0356 31.8265C92.0356 31.8042 92.0244 31.793 92.002 31.793C92.002 31.7707 92.002 31.7484 92.002 31.7261C92.002 31.7037 91.9907 31.6926 91.9683 31.6926C91.9683 31.6703 91.9683 31.648 91.9683 31.6256C91.9459 31.581 91.9347 31.5475 91.9347 31.5252C91.9347 31.5029 91.9234 31.4694 91.901 31.4248C91.8786 31.3802 91.8674 31.3467 91.8674 31.3244C91.8674 31.3021 91.8561 31.2686 91.8337 31.224C91.8113 31.2017 91.8001 31.1794 91.8001 31.1571C91.8001 31.1347 91.7888 31.1124 91.7664 31.0901C91.7215 31.0009 91.6991 30.9562 91.6991 30.9562C91.6767 30.9339 91.6655 30.9228 91.6655 30.9228C91.6655 30.9004 91.6542 30.8781 91.6318 30.8558C91.6094 30.8335 91.5982 30.8112 91.5982 30.7889C91.5757 30.7666 91.5645 30.7442 91.5645 30.7219H91.5309C91.5309 30.7219 91.5421 30.7442 91.5645 30.7889V30.8558C91.587 30.8781 91.5982 30.9228 91.5982 30.9897C91.5982 31.012 91.5982 31.0343 91.5982 31.0566C91.6206 31.0566 91.6318 31.079 91.6318 31.1236C91.6318 31.1905 91.643 31.2463 91.6655 31.2909V31.4583C91.6655 31.5029 91.6655 31.5364 91.6655 31.5587C91.6879 31.581 91.6991 31.6145 91.6991 31.6591C91.6991 31.8599 91.7103 32.0161 91.7328 32.1277V32.6632C91.7552 32.7748 91.7664 32.9533 91.7664 33.1988V34.4706C91.744 34.5153 91.7328 34.5711 91.7328 34.638V35.4078C91.7103 35.4971 91.6991 35.5863 91.6991 35.6756C91.6991 35.7425 91.6991 35.8095 91.6991 35.8764C91.6991 35.921 91.6879 35.9545 91.6655 35.9768C91.6655 35.9991 91.6655 36.0326 91.6655 36.0772V36.2781C91.643 36.3227 91.6318 36.3785 91.6318 36.4454C91.6318 36.49 91.6206 36.5347 91.5982 36.5793C91.5982 36.6239 91.587 36.6574 91.5645 36.6797V36.7466L91.5309 36.8136C91.5309 36.8136 91.5533 36.8024 91.5982 36.7801V36.7466L91.6318 36.7132C91.6542 36.6909 91.6655 36.6797 91.6655 36.6797C91.6655 36.6574 91.6767 36.6351 91.6991 36.6128C91.7215 36.5681 91.744 36.5235 91.7664 36.4789C91.7888 36.4119 91.8113 36.3562 91.8337 36.3115Z" fill="#F4EDE8"/>
<path d="M104.985 49.1642C104.985 49.5659 105.019 49.8671 105.086 50.068C105.176 50.2465 105.266 50.3915 105.355 50.5031C105.445 50.5923 105.524 50.6816 105.591 50.7708C105.681 50.8601 105.725 51.0051 105.725 51.206H96.5729C96.4383 51.206 96.315 51.1502 96.2028 51.0386C96.0906 50.927 96.0346 50.8043 96.0346 50.6704C96.0346 50.8043 95.9785 50.927 95.8663 51.0386C95.7766 51.1502 95.6532 51.206 95.4962 51.206H93.7464C93.7464 51.0051 93.7801 50.8601 93.8474 50.7708C93.9371 50.6816 94.0268 50.5923 94.1166 50.5031C94.2063 50.3915 94.2848 50.2465 94.3521 50.068C94.4418 49.8894 94.4867 49.6105 94.4867 49.2312V41.0644C94.4194 40.3726 94.1054 39.8706 93.5445 39.5582C93.7913 39.402 94.1054 39.3239 94.4867 39.3239V29.7513C94.4867 29.372 94.4418 29.093 94.3521 28.9145C94.2848 28.736 94.2063 28.6021 94.1166 28.5129C94.0268 28.4013 93.9371 28.3009 93.8474 28.2116C93.7801 28.1224 93.7464 27.9773 93.7464 27.7765H95.5298C95.6644 27.7765 95.7878 27.8323 95.9 27.9439C96.0121 28.0331 96.0682 28.1559 96.0682 28.312C96.0682 27.955 96.2477 27.7765 96.6066 27.7765H105.725C105.725 27.9773 105.681 28.1224 105.591 28.2116C105.524 28.3009 105.445 28.4013 105.355 28.5129C105.266 28.6021 105.176 28.7472 105.086 28.948C105.019 29.1265 104.985 29.4166 104.985 29.8182V34.2698C104.2 34.2698 103.594 34.1248 103.168 33.8347C102.764 33.5223 102.462 33.1764 102.26 32.7971C102.013 32.3732 101.878 31.8711 101.856 31.2909V30.2533C101.856 30.0079 101.766 29.7959 101.587 29.6174C101.407 29.4389 101.194 29.3385 100.947 29.3162H98.5246C98.2778 29.3385 98.0647 29.4389 97.8853 29.6174C97.7058 29.7959 97.6161 30.0079 97.6161 30.2533V37.7842C97.6161 38.0297 97.7058 38.2417 97.8853 38.4202C98.0647 38.5987 98.2778 38.6879 98.5246 38.6879H98.7601C99.0069 38.6879 99.2088 38.5987 99.3658 38.4202C99.5453 38.2417 99.635 38.0297 99.635 37.7842V37.7508C99.6574 37.4161 99.7472 37.126 99.9042 36.8805C100.039 36.6574 100.241 36.4566 100.51 36.2781C100.779 36.0995 101.172 36.0103 101.688 36.0103V42.9387C101.172 42.9387 100.779 42.8495 100.51 42.6709C100.241 42.4924 100.039 42.2916 99.9042 42.0685C99.7472 41.823 99.6574 41.5329 99.635 41.1982C99.635 40.9528 99.5453 40.7408 99.3658 40.5623C99.2088 40.3838 99.0069 40.2834 98.7601 40.2611H98.5246C98.2778 40.2834 98.0647 40.3838 97.8853 40.5623C97.7058 40.7408 97.6161 40.9528 97.6161 41.1982V48.7291C97.6161 48.9746 97.7058 49.1866 97.8853 49.3651C98.0647 49.5436 98.2778 49.6328 98.5246 49.6328H100.947C101.194 49.6328 101.407 49.5436 101.587 49.3651C101.766 49.1866 101.856 48.9746 101.856 48.7291V47.6581C101.878 47.1002 102.013 46.6093 102.26 46.1854C102.462 45.806 102.764 45.4602 103.168 45.1478C103.594 44.8354 104.2 44.6792 104.985 44.6792V49.1642ZM96.3038 37.9181C96.3038 37.8066 96.2925 37.6838 96.2701 37.5499C96.2701 37.4161 96.2701 37.2822 96.2701 37.1483V36.4119C96.2477 35.921 96.2365 35.4524 96.2365 35.0062C96.2365 34.5599 96.2252 34.1359 96.2028 33.7343C96.1804 33.5558 96.1692 33.3773 96.1692 33.1988C96.1692 33.0203 96.1579 32.8529 96.1355 32.6967C96.1355 32.5182 96.1243 32.362 96.1019 32.2281C96.1019 32.0942 96.1019 31.9715 96.1019 31.8599C96.1019 31.7484 96.0906 31.648 96.0682 31.5587C96.0682 31.4694 96.0682 31.3913 96.0682 31.3244V31.1571C96.0458 31.1571 96.0346 31.1682 96.0346 31.1905V31.3244C96.0346 31.3913 96.0233 31.4694 96.0009 31.5587C96.0009 31.648 96.0009 31.7484 96.0009 31.8599C96.0009 31.9715 95.9897 32.0942 95.9673 32.2281C95.9673 32.362 95.9673 32.5182 95.9673 32.6967C95.9448 32.8529 95.9336 33.0203 95.9336 33.1988C95.9336 33.3773 95.9224 33.5558 95.9 33.7343C95.8775 34.1359 95.8663 34.5599 95.8663 35.0062C95.8663 35.4524 95.8551 35.921 95.8327 36.4119V37.1483C95.8327 37.2822 95.8214 37.4161 95.799 37.5499C95.799 37.6838 95.799 37.8066 95.799 37.9181V41.0309C95.799 41.2094 95.8102 41.3433 95.8327 41.4325V42.5371C95.8327 42.7825 95.8327 43.028 95.8327 43.2734C95.8551 43.4966 95.8663 43.7197 95.8663 43.9428C95.8663 44.1883 95.8663 44.4114 95.8663 44.6122C95.8887 44.8131 95.9 45.0139 95.9 45.2147C95.9224 45.4155 95.9336 45.6052 95.9336 45.7837C95.9336 45.9399 95.9448 46.1073 95.9673 46.2858C95.9673 46.442 95.9673 46.587 95.9673 46.7209C95.9897 46.8548 96.0009 46.9775 96.0009 47.0891C96.0009 47.2006 96.0009 47.3122 96.0009 47.4238C96.0233 47.513 96.0346 47.58 96.0346 47.6246V47.792C96.0346 47.8143 96.0458 47.8254 96.0682 47.8254V47.6246C96.0682 47.58 96.0682 47.513 96.0682 47.4238C96.0906 47.3122 96.1019 47.2006 96.1019 47.0891C96.1019 46.9775 96.1019 46.8548 96.1019 46.7209C96.1243 46.587 96.1355 46.442 96.1355 46.2858C96.1579 46.1073 96.1692 45.9399 96.1692 45.7837C96.1692 45.6052 96.1804 45.4155 96.2028 45.2147C96.2028 45.0139 96.2028 44.8131 96.2028 44.6122C96.2252 44.4114 96.2365 44.1883 96.2365 43.9428C96.2365 43.7197 96.2365 43.4966 96.2365 43.2734C96.2589 43.028 96.2701 42.7825 96.2701 42.5371V41.8007C96.2701 41.6222 96.2813 41.4995 96.3038 41.4325V37.9181Z" fill="#F4EDE8"/>
<path d="M118.521 52.6117C118.768 52.6563 118.936 52.7344 119.026 52.846C119.138 52.9576 119.217 53.0692 119.262 53.1807C119.307 53.3146 119.329 53.4596 119.329 53.6158C118.611 53.6158 117.938 53.5266 117.31 53.3481C116.682 53.1696 116.121 52.8795 115.628 52.4778C115.157 52.0762 114.775 51.5518 114.484 50.9047C114.214 50.2576 114.08 49.4655 114.08 48.5283V43.9428C114.08 43.6528 114.069 43.2957 114.046 42.8718C114.024 42.4478 113.945 42.0462 113.811 41.6668C113.676 41.2875 113.463 40.9639 113.171 40.6962C112.902 40.4061 112.498 40.2611 111.96 40.2611H110.58C110.378 40.3057 110.199 40.4173 110.042 40.5958C109.907 40.752 109.84 40.9416 109.84 41.1648V49.1642C109.84 49.5659 109.874 49.8671 109.941 50.068C110.031 50.2465 110.12 50.3915 110.21 50.5031C110.3 50.5923 110.378 50.6816 110.446 50.7708C110.535 50.8601 110.58 51.0051 110.58 51.206H108.797C108.662 51.206 108.539 51.1502 108.427 51.0386C108.315 50.927 108.259 50.8043 108.259 50.6704C108.259 50.8043 108.202 50.927 108.09 51.0386C108.001 51.1502 107.877 51.206 107.72 51.206H105.97C105.97 51.0051 106.004 50.8601 106.071 50.7708C106.161 50.6816 106.251 50.5923 106.341 50.5031C106.43 50.3915 106.509 50.2465 106.576 50.068C106.666 49.8894 106.711 49.6105 106.711 49.2312V41.0644C106.643 40.3726 106.329 39.8706 105.769 39.5582C106.015 39.402 106.329 39.3239 106.711 39.3239V29.7513C106.711 29.372 106.666 29.093 106.576 28.9145C106.509 28.736 106.43 28.6021 106.341 28.5129C106.251 28.4013 106.161 28.3009 106.071 28.2116C106.004 28.1224 105.97 27.9773 105.97 27.7765H107.754C107.888 27.7765 108.012 27.8323 108.124 27.9439C108.236 28.0331 108.292 28.1559 108.292 28.312C108.292 27.955 108.472 27.7765 108.831 27.7765H111.994C112.711 27.7765 113.384 27.9104 114.013 28.1782C114.641 28.4459 115.19 28.8141 115.661 29.2827C116.132 29.729 116.503 30.2645 116.772 30.8893C117.041 31.5141 117.187 32.1723 117.209 32.8641V35.0396C117.209 35.9768 116.985 36.8359 116.536 37.6169C116.088 38.3979 115.482 39.0226 114.719 39.4912C115.482 39.9375 116.088 40.5623 116.536 41.3656C116.985 42.1466 117.209 43.0057 117.209 43.9428V48.3944C117.209 48.863 117.209 49.3428 117.209 49.8337C117.232 50.3022 117.288 50.7374 117.377 51.139C117.467 51.5183 117.602 51.8419 117.781 52.1097C117.961 52.3774 118.207 52.5448 118.521 52.6117ZM115.459 34.4706C115.437 34.5153 115.426 34.5711 115.426 34.638V35.4078C115.403 35.4971 115.392 35.5863 115.392 35.6756C115.392 35.7425 115.392 35.8095 115.392 35.8764C115.392 35.921 115.381 35.9545 115.358 35.9768C115.358 35.9991 115.358 36.0326 115.358 36.0772V36.2781C115.336 36.3227 115.325 36.3785 115.325 36.4454C115.325 36.49 115.314 36.5347 115.291 36.5793C115.291 36.6239 115.28 36.6574 115.258 36.6797V36.7466L115.224 36.8136C115.224 36.8136 115.246 36.8024 115.291 36.7801V36.7466L115.325 36.7132C115.347 36.6909 115.358 36.6797 115.358 36.6797C115.358 36.6574 115.37 36.6351 115.392 36.6128C115.415 36.5681 115.437 36.5235 115.459 36.4789C115.482 36.4119 115.504 36.3562 115.527 36.3115C115.549 36.2669 115.56 36.2446 115.56 36.2446C115.56 36.2223 115.572 36.1888 115.594 36.1442C115.616 36.0995 115.628 36.0661 115.628 36.0438C115.628 35.9991 115.639 35.9545 115.661 35.9099C115.684 35.8653 115.695 35.8318 115.695 35.8095C115.695 35.7872 115.706 35.7537 115.729 35.7091C115.729 35.6644 115.729 35.631 115.729 35.6086C115.751 35.564 115.762 35.5194 115.762 35.4748C115.785 35.3855 115.796 35.2963 115.796 35.207C115.818 35.1177 115.841 35.0285 115.863 34.9392C115.886 34.8723 115.897 34.7719 115.897 34.638C115.897 34.5934 115.897 34.5487 115.897 34.5041C115.919 34.4595 115.931 34.4149 115.931 34.3702V33.1988C115.931 33.0649 115.919 32.9645 115.897 32.8975V32.7636C115.897 32.719 115.886 32.6967 115.863 32.6967C115.863 32.6744 115.863 32.6409 115.863 32.5963C115.863 32.4847 115.841 32.3174 115.796 32.0942C115.773 32.0496 115.762 32.005 115.762 31.9603C115.762 31.9157 115.751 31.8711 115.729 31.8265C115.729 31.8042 115.717 31.793 115.695 31.793C115.695 31.7707 115.695 31.7484 115.695 31.7261C115.695 31.7037 115.684 31.6926 115.661 31.6926C115.661 31.6703 115.661 31.648 115.661 31.6256C115.639 31.581 115.628 31.5475 115.628 31.5252C115.628 31.5029 115.616 31.4694 115.594 31.4248C115.572 31.3802 115.56 31.3467 115.56 31.3244C115.56 31.3021 115.549 31.2686 115.527 31.224C115.504 31.2017 115.493 31.1794 115.493 31.1571C115.493 31.1347 115.482 31.1124 115.459 31.0901C115.415 31.0009 115.392 30.9562 115.392 30.9562C115.37 30.9339 115.358 30.9228 115.358 30.9228C115.358 30.9004 115.347 30.8781 115.325 30.8558C115.302 30.8335 115.291 30.8112 115.291 30.7889C115.269 30.7666 115.258 30.7442 115.258 30.7219H115.224C115.224 30.7219 115.235 30.7442 115.258 30.7889V30.8558C115.28 30.8781 115.291 30.9228 115.291 30.9897C115.291 31.012 115.291 31.0343 115.291 31.0566C115.314 31.0566 115.325 31.079 115.325 31.1236C115.325 31.1905 115.336 31.2463 115.358 31.2909V31.4583C115.358 31.5029 115.358 31.5364 115.358 31.5587C115.381 31.581 115.392 31.6145 115.392 31.6591C115.392 31.8599 115.403 32.0161 115.426 32.1277V32.6632C115.448 32.7748 115.459 32.9533 115.459 33.1988V34.4706ZM108.528 37.9181C108.528 37.8066 108.517 37.6838 108.494 37.5499C108.494 37.4161 108.494 37.2822 108.494 37.1483V36.4119C108.472 35.921 108.46 35.4524 108.46 35.0062C108.46 34.5599 108.449 34.1359 108.427 33.7343C108.404 33.5558 108.393 33.3773 108.393 33.1988C108.393 33.0203 108.382 32.8529 108.36 32.6967C108.36 32.5182 108.348 32.362 108.326 32.2281C108.326 32.0942 108.326 31.9715 108.326 31.8599C108.326 31.7484 108.315 31.648 108.292 31.5587C108.292 31.4694 108.292 31.3913 108.292 31.3244V31.1571C108.27 31.1571 108.259 31.1682 108.259 31.1905V31.3244C108.259 31.3913 108.247 31.4694 108.225 31.5587C108.225 31.648 108.225 31.7484 108.225 31.8599C108.225 31.9715 108.214 32.0942 108.191 32.2281C108.191 32.362 108.191 32.5182 108.191 32.6967C108.169 32.8529 108.158 33.0203 108.158 33.1988C108.158 33.3773 108.146 33.5558 108.124 33.7343C108.102 34.1359 108.09 34.5599 108.09 35.0062C108.09 35.4524 108.079 35.921 108.057 36.4119V37.1483C108.057 37.2822 108.045 37.4161 108.023 37.5499C108.023 37.6838 108.023 37.8066 108.023 37.9181V41.0309C108.023 41.2094 108.034 41.3433 108.057 41.4325V42.5371C108.057 42.7825 108.057 43.028 108.057 43.2734C108.079 43.4966 108.09 43.7197 108.09 43.9428C108.09 44.1883 108.09 44.4114 108.09 44.6122C108.113 44.8131 108.124 45.0139 108.124 45.2147C108.146 45.4155 108.158 45.6052 108.158 45.7837C108.158 45.9399 108.169 46.1073 108.191 46.2858C108.191 46.442 108.191 46.587 108.191 46.7209C108.214 46.8548 108.225 46.9775 108.225 47.0891C108.225 47.2006 108.225 47.3122 108.225 47.4238C108.247 47.513 108.259 47.58 108.259 47.6246V47.792C108.259 47.8143 108.27 47.8254 108.292 47.8254V47.6246C108.292 47.58 108.292 47.513 108.292 47.4238C108.315 47.3122 108.326 47.2006 108.326 47.0891C108.326 46.9775 108.326 46.8548 108.326 46.7209C108.348 46.587 108.36 46.442 108.36 46.2858C108.382 46.1073 108.393 45.9399 108.393 45.7837C108.393 45.6052 108.404 45.4155 108.427 45.2147C108.427 45.0139 108.427 44.8131 108.427 44.6122C108.449 44.4114 108.46 44.1883 108.46 43.9428C108.46 43.7197 108.46 43.4966 108.46 43.2734C108.483 43.028 108.494 42.7825 108.494 42.5371V41.8007C108.494 41.6222 108.505 41.4995 108.528 41.4325V37.9181ZM114.08 32.9979C114.08 32.7079 114.069 32.3508 114.046 31.9269C114.024 31.5029 113.945 31.1013 113.811 30.7219C113.676 30.3426 113.463 30.0191 113.171 29.7513C112.902 29.4612 112.498 29.3162 111.96 29.3162H110.749C110.502 29.3385 110.289 29.4389 110.109 29.6174C109.93 29.7959 109.84 30.0079 109.84 30.2533V37.7842C109.84 38.0297 109.93 38.2417 110.109 38.4202C110.289 38.5987 110.502 38.6879 110.749 38.6879H111.96C112.498 38.6879 112.902 38.5541 113.171 38.2863C113.463 38.0185 113.676 37.695 113.811 37.3156C113.945 36.914 114.024 36.5124 114.046 36.1107C114.069 35.6867 114.08 35.3297 114.08 35.0396V32.9979ZM116.334 51.3398C116.334 51.3398 116.323 51.3287 116.301 51.3064L116.267 51.2729C116.245 51.2283 116.222 51.1836 116.2 51.139C116.2 51.0944 116.177 51.0498 116.132 51.0051C116.11 50.9382 116.088 50.8713 116.065 50.8043C116.043 50.7151 116.02 50.6146 115.998 50.5031C115.953 50.2799 115.931 50.068 115.931 49.8671C115.908 49.7556 115.897 49.644 115.897 49.5324C115.897 49.3985 115.897 49.2535 115.897 49.0973V47.3234C115.897 47.1672 115.897 47.011 115.897 46.8548C115.897 46.6986 115.908 46.5312 115.931 46.3527C115.931 46.1965 115.931 46.0403 115.931 45.8841C115.931 45.7279 115.919 45.5717 115.897 45.4155V44.9469C115.897 44.7238 115.886 44.5676 115.863 44.4784C115.863 44.3222 115.852 44.1771 115.83 44.0432C115.83 43.887 115.818 43.742 115.796 43.6081C115.751 43.2957 115.706 43.028 115.661 42.8048C115.639 42.6933 115.616 42.5928 115.594 42.5036C115.572 42.392 115.538 42.2805 115.493 42.1689C115.448 42.0573 115.415 41.9681 115.392 41.9011C115.37 41.8342 115.336 41.7672 115.291 41.7003C115.246 41.6334 115.213 41.5776 115.19 41.5329C115.168 41.4883 115.145 41.4437 115.123 41.3991C115.101 41.3991 115.078 41.3879 115.056 41.3656C115.033 41.3656 115.022 41.3544 115.022 41.3321L115.056 41.3656C115.056 41.3879 115.067 41.4102 115.089 41.4325C115.089 41.4548 115.089 41.4772 115.089 41.4995C115.112 41.4995 115.123 41.5218 115.123 41.5664C115.145 41.5887 115.157 41.611 115.157 41.6334C115.157 41.6557 115.168 41.6891 115.19 41.7338C115.213 41.823 115.246 41.9792 115.291 42.2024C115.314 42.3139 115.325 42.4255 115.325 42.5371C115.347 42.6486 115.37 42.7602 115.392 42.8718C115.392 42.9833 115.392 43.1061 115.392 43.2399C115.415 43.3515 115.426 43.4854 115.426 43.6416V47.792C115.426 47.8812 115.426 47.9593 115.426 48.0262C115.448 48.0932 115.459 48.1713 115.459 48.2605C115.459 48.4167 115.459 48.5729 115.459 48.7291C115.482 48.863 115.504 48.9969 115.527 49.1308C115.549 49.2647 115.56 49.3985 115.56 49.5324C115.583 49.6663 115.605 49.789 115.628 49.9006C115.673 50.0345 115.706 50.1572 115.729 50.2688C115.751 50.358 115.785 50.4584 115.83 50.57C115.874 50.6816 115.908 50.7708 115.931 50.8378C115.953 50.9047 115.987 50.9717 116.031 51.0386L116.099 51.1055C116.121 51.1279 116.132 51.1502 116.132 51.1725C116.132 51.1725 116.144 51.1836 116.166 51.206L116.301 51.3398H116.334Z" fill="#F4EDE8"/>
<ellipse rx="1.80262" ry="1.79307" transform="matrix(1 0 0 -1 126.183 40.0172)" fill="#999591"/>
<ellipse rx="1.80262" ry="1.79307" transform="matrix(1 0 0 -1 11.4164 40.0172)" fill="#999591"/>
</svg>
